<svg width="415" height="148" viewBox="0 0 415 148" fill="none" xmlns="http://www.w3.org/2000/svg">
<path d="M6.42658 141.785V140.824L8.22646 140.681V137.711H0.695661V136.971L8.105 125.708H9.55153V136.606H12.0692V137.711H9.55153V140.681L11.3514 140.824V141.785H6.42658ZM2.26366 136.606H8.22646V127.596L8.16021 127.574L7.59705 128.612L2.26366 136.606ZM20.7249 141.785V140.824L22.5248 140.681V126.823L20.7249 126.679V125.708H32.6285V129.23H31.5022L31.3917 126.812H23.8499V133.128H30.3979V134.243H23.8499V140.681L25.6498 140.824V141.785H20.7249ZM42.5272 142.017C41.4229 142.017 40.4475 141.807 39.601 141.388C38.7618 140.961 38.1029 140.346 37.6244 139.544C37.1459 138.734 36.9067 137.755 36.9067 136.606V126.823L35.1068 126.679V125.708H40.0316V126.679L38.2317 126.823V136.606C38.2317 137.519 38.4121 138.296 38.7728 138.936C39.1409 139.569 39.6488 140.055 40.2966 140.394C40.9444 140.725 41.6916 140.891 42.5382 140.891C43.3848 140.891 44.1356 140.725 44.7908 140.394C45.446 140.063 45.9576 139.58 46.3257 138.947C46.6938 138.307 46.8778 137.527 46.8778 136.606V126.823L45.0779 126.679V125.708H50.0028V126.679L48.2029 126.823V136.606C48.2029 137.777 47.9636 138.763 47.4851 139.566C47.014 140.368 46.3515 140.979 45.4975 141.399C44.6436 141.811 43.6535 142.017 42.5272 142.017ZM56.2906 141.785V140.824L58.0905 140.681V126.79H53.5743L53.4307 129.241H52.3486V125.708H65.1465V129.241H64.0754L63.9208 126.79H59.4156V140.681L61.2155 140.824V141.785H56.2906ZM74.979 142.017C73.8747 142.017 72.8993 141.807 72.0528 141.388C71.2136 140.961 70.5547 140.346 70.0762 139.544C69.5977 138.734 69.3585 137.755 69.3585 136.606V126.823L67.5586 126.679V125.708H72.4834V126.679L70.6835 126.823V136.606C70.6835 137.519 70.8639 138.296 71.2246 138.936C71.5927 139.569 72.1006 140.055 72.7484 140.394C73.3962 140.725 74.1434 140.891 74.99 140.891C75.8366 140.891 76.5874 140.725 77.2426 140.394C77.8978 140.063 78.4094 139.58 78.7775 138.947C79.1456 138.307 79.3296 137.527 79.3296 136.606V126.823L77.5297 126.679V125.708H82.4545V126.679L80.6547 126.823V136.606C80.6547 137.777 80.4154 138.763 79.9369 139.566C79.4658 140.368 78.8032 140.979 77.9493 141.399C77.0954 141.811 76.1053 142.017 74.979 142.017ZM84.6789 141.796V140.824L86.4788 140.681V126.823L84.6789 126.679V125.719H91.4588C92.6072 125.719 93.5789 125.888 94.374 126.227C95.169 126.565 95.7727 127.059 96.1849 127.706C96.6045 128.354 96.8143 129.153 96.8143 130.102C96.8143 131.023 96.5971 131.799 96.1628 132.432C95.7358 133.065 95.1322 133.548 94.3519 133.879C93.5789 134.203 92.6698 134.368 91.6245 134.376L87.8038 134.409V140.681L89.6037 140.824V141.796H84.6789ZM95.4892 141.796L92.033 133.813L93.3581 133.802L96.4278 140.725L97.7419 140.813V141.796H95.4892ZM87.8038 133.305H91.3263C92.7618 133.305 93.8145 133.01 94.4844 132.421C95.1543 131.832 95.4892 131.056 95.4892 130.091C95.4892 129.053 95.1543 128.251 94.4844 127.684C93.8145 127.11 92.806 126.823 91.4588 126.823H87.8038V133.305ZM100.529 141.785V140.824L102.329 140.681V126.823L100.529 126.679V125.708H112.08V129.23H110.953L110.843 126.801H103.654V132.885H110.136V133.989H103.654V140.714H111.185L111.296 138.263H112.411V141.785H100.529ZM121.63 141.785V140.824L123.43 140.681V126.823L121.63 126.679V125.708H123.43H124.755H126.555V126.679L124.755 126.823V140.692H131.501L131.623 138.097H132.705V141.785H121.63ZM135.382 141.785V140.824L137.182 140.681V126.823L135.382 126.679V125.708H146.932V129.23H145.806L145.696 126.801H138.507V132.885H144.989V133.989H138.507V140.714H146.038L146.148 138.263H147.264V141.785H135.382ZM150.128 141.785V140.824L151.31 140.747L157.019 125.708H158.278L163.942 140.747L165.124 140.824V141.785H161.16V140.824L162.573 140.725L161.237 137.092H154.026L152.679 140.725L154.093 140.824V141.785H150.128ZM154.457 135.933H160.806L157.902 128.038L157.681 127.386H157.615L157.383 128.038L154.457 135.933ZM167.525 141.785V140.824L169.325 140.681V126.823L167.525 126.679V125.708H169.325H173.742C175.111 125.708 176.314 126.05 177.352 126.735C178.39 127.412 179.204 128.347 179.793 129.539C180.389 130.725 180.687 132.083 180.687 133.614V133.879C180.687 135.403 180.396 136.761 179.815 137.954C179.233 139.139 178.423 140.074 177.385 140.758C176.355 141.443 175.159 141.785 173.797 141.785H167.525ZM170.65 140.681H173.742C174.86 140.681 175.84 140.383 176.679 139.787C177.518 139.183 178.173 138.369 178.644 137.346C179.123 136.316 179.362 135.16 179.362 133.879V133.592C179.362 132.296 179.123 131.14 178.644 130.125C178.173 129.101 177.518 128.295 176.679 127.706C175.84 127.117 174.86 126.823 173.742 126.823H170.65V140.681ZM183.353 141.785V140.824L185.153 140.681V126.823L183.353 126.679V125.708H194.903V129.23H193.777L193.667 126.801H186.478V132.885H192.96V133.989H186.478V140.714H194.009L194.119 138.263H195.235V141.785H183.353ZM198.254 141.796V140.824L200.054 140.681V126.823L198.254 126.679V125.719H205.034C206.182 125.719 207.154 125.888 207.949 126.227C208.744 126.565 209.348 127.059 209.76 127.706C210.18 128.354 210.389 129.153 210.389 130.102C210.389 131.023 210.172 131.799 209.738 132.432C209.311 133.065 208.707 133.548 207.927 133.879C207.154 134.203 206.245 134.368 205.2 134.376L201.379 134.409V140.681L203.179 140.824V141.796H198.254ZM209.064 141.796L205.608 133.813L206.933 133.802L210.003 140.725L211.317 140.813V141.796H209.064ZM201.379 133.305H204.901C206.337 133.305 207.39 133.01 208.059 132.421C208.729 131.832 209.064 131.056 209.064 130.091C209.064 129.053 208.729 128.251 208.059 127.684C207.39 127.11 206.381 126.823 205.034 126.823H201.379V133.305ZM219.857 142.017C218.937 142.017 218.017 141.877 217.097 141.597C216.184 141.318 215.301 140.883 214.447 140.294V137.181H215.551L215.717 139.687C216.364 140.092 217.038 140.394 217.737 140.593C218.437 140.791 219.143 140.891 219.857 140.891C220.704 140.891 221.44 140.762 222.066 140.504C222.699 140.239 223.189 139.875 223.535 139.411C223.888 138.94 224.065 138.399 224.065 137.788C224.065 137.199 223.921 136.684 223.634 136.242C223.354 135.793 222.894 135.399 222.254 135.06C221.621 134.722 220.759 134.413 219.67 134.133C218.499 133.831 217.542 133.478 216.799 133.073C216.063 132.668 215.518 132.182 215.164 131.615C214.819 131.041 214.646 130.36 214.646 129.572C214.646 128.77 214.859 128.063 215.286 127.452C215.713 126.834 216.309 126.352 217.075 126.006C217.848 125.652 218.746 125.476 219.769 125.476C220.851 125.476 221.816 125.638 222.662 125.962C223.516 126.286 224.238 126.701 224.826 127.209V130.08H223.733L223.568 127.806C223.104 127.43 222.555 127.136 221.922 126.922C221.289 126.709 220.572 126.602 219.769 126.602C218.981 126.602 218.304 126.735 217.737 127C217.17 127.257 216.732 127.607 216.423 128.049C216.121 128.49 215.971 128.991 215.971 129.55C215.971 130.088 216.092 130.563 216.335 130.975C216.578 131.38 216.998 131.74 217.594 132.057C218.19 132.366 219.026 132.664 220.1 132.951C221.845 133.4 223.163 134.008 224.053 134.773C224.944 135.532 225.39 136.529 225.39 137.766C225.39 138.62 225.154 139.367 224.683 140.007C224.219 140.64 223.571 141.134 222.739 141.487C221.908 141.84 220.947 142.017 219.857 142.017ZM241.168 142.017C240.152 142.017 239.232 141.822 238.407 141.432C237.583 141.042 236.876 140.486 236.287 139.764C235.698 139.043 235.245 138.185 234.929 137.192C234.612 136.19 234.454 135.079 234.454 133.857V133.647C234.454 132.425 234.609 131.317 234.918 130.323C235.234 129.322 235.687 128.461 236.276 127.739C236.865 127.011 237.572 126.451 238.396 126.061C239.221 125.671 240.141 125.476 241.157 125.476C242.195 125.476 243.126 125.671 243.95 126.061C244.782 126.451 245.489 127.011 246.07 127.739C246.659 128.461 247.105 129.322 247.406 130.323C247.716 131.317 247.87 132.425 247.87 133.647V133.857C247.87 135.079 247.716 136.19 247.406 137.192C247.105 138.185 246.663 139.043 246.081 139.764C245.5 140.486 244.793 141.042 243.961 141.432C243.137 141.822 242.206 142.017 241.168 142.017ZM241.168 140.858C242.331 140.858 243.31 140.567 244.105 139.985C244.907 139.404 245.515 138.587 245.927 137.534C246.339 136.481 246.545 135.256 246.545 133.857V133.625C246.545 132.226 246.335 131.004 245.916 129.959C245.504 128.914 244.896 128.1 244.094 127.519C243.291 126.93 242.312 126.635 241.157 126.635C240.045 126.635 239.088 126.93 238.286 127.519C237.483 128.1 236.865 128.917 236.431 129.97C236.004 131.015 235.79 132.234 235.79 133.625V133.857C235.79 135.256 236.004 136.481 236.431 137.534C236.865 138.587 237.483 139.404 238.286 139.985C239.095 140.567 240.056 140.858 241.168 140.858ZM250.591 141.785V140.824L252.391 140.681V126.823L250.591 126.679V125.708H262.495V129.23H261.369L261.258 126.812H253.716V133.128H260.264V134.243H253.716V140.681L255.516 140.824V141.785H250.591ZM275.358 141.785V140.824L277.158 140.681V126.79H272.642L272.498 129.241H271.416V125.708H284.214V129.241H283.143L282.988 126.79H278.483V140.681L280.283 140.824V141.785H275.358ZM293.439 142.017C292.423 142.017 291.503 141.822 290.678 141.432C289.854 141.042 289.147 140.486 288.558 139.764C287.969 139.043 287.517 138.185 287.2 137.192C286.883 136.19 286.725 135.079 286.725 133.857V133.647C286.725 132.425 286.88 131.317 287.189 130.323C287.506 129.322 287.958 128.461 288.547 127.739C289.136 127.011 289.843 126.451 290.667 126.061C291.492 125.671 292.412 125.476 293.428 125.476C294.466 125.476 295.397 125.671 296.222 126.061C297.053 126.451 297.76 127.011 298.342 127.739C298.931 128.461 299.376 129.322 299.678 130.323C299.987 131.317 300.142 132.425 300.142 133.647V133.857C300.142 135.079 299.987 136.19 299.678 137.192C299.376 138.185 298.934 139.043 298.353 139.764C297.771 140.486 297.064 141.042 296.233 141.432C295.408 141.822 294.477 142.017 293.439 142.017ZM293.439 140.858C294.602 140.858 295.581 140.567 296.376 139.985C297.179 139.404 297.786 138.587 298.198 137.534C298.61 136.481 298.816 135.256 298.816 133.857V133.625C298.816 132.226 298.607 131.004 298.187 129.959C297.775 128.914 297.167 128.1 296.365 127.519C295.563 126.93 294.584 126.635 293.428 126.635C292.316 126.635 291.359 126.93 290.557 127.519C289.754 128.1 289.136 128.917 288.702 129.97C288.275 131.015 288.061 132.234 288.061 133.625V133.857C288.061 135.256 288.275 136.481 288.702 137.534C289.136 138.587 289.754 139.404 290.557 139.985C291.367 140.567 292.327 140.858 293.439 140.858ZM302.929 141.785V140.824L304.729 140.681V126.823L302.929 126.679V125.708H304.729H306.518L312.458 139.488H312.525L318.388 125.708H322.065V126.679L320.265 126.823V140.681L322.065 140.824V141.785H317.14V140.824L318.984 140.681V133.824V127.64L318.929 127.629L312.966 141.52H312.039L306.01 127.673L305.944 127.695L305.988 133.669V140.681L307.854 140.824V141.785H302.929ZM331.5 142.017C330.484 142.017 329.564 141.822 328.74 141.432C327.915 141.042 327.208 140.486 326.619 139.764C326.031 139.043 325.578 138.185 325.261 137.192C324.945 136.19 324.786 135.079 324.786 133.857V133.647C324.786 132.425 324.941 131.317 325.25 130.323C325.567 129.322 326.02 128.461 326.608 127.739C327.197 127.011 327.904 126.451 328.729 126.061C329.553 125.671 330.473 125.476 331.489 125.476C332.527 125.476 333.458 125.671 334.283 126.061C335.115 126.451 335.821 127.011 336.403 127.739C336.992 128.461 337.437 129.322 337.739 130.323C338.048 131.317 338.203 132.425 338.203 133.647V133.857C338.203 135.079 338.048 136.19 337.739 137.192C337.437 138.185 336.995 139.043 336.414 139.764C335.832 140.486 335.126 141.042 334.294 141.432C333.469 141.822 332.538 142.017 331.5 142.017ZM331.5 140.858C332.663 140.858 333.642 140.567 334.437 139.985C335.24 139.404 335.847 138.587 336.259 137.534C336.672 136.481 336.878 135.256 336.878 133.857V133.625C336.878 132.226 336.668 131.004 336.248 129.959C335.836 128.914 335.229 128.1 334.426 127.519C333.624 126.93 332.645 126.635 331.489 126.635C330.378 126.635 329.421 126.93 328.618 127.519C327.816 128.1 327.197 128.917 326.763 129.97C326.336 131.015 326.123 132.234 326.123 133.625V133.857C326.123 135.256 326.336 136.481 326.763 137.534C327.197 138.587 327.816 139.404 328.618 139.985C329.428 140.567 330.389 140.858 331.5 140.858ZM340.924 141.796V140.824L342.724 140.681V126.823L340.924 126.679V125.719H347.704C348.852 125.719 349.824 125.888 350.619 126.227C351.414 126.565 352.018 127.059 352.43 127.706C352.85 128.354 353.059 129.153 353.059 130.102C353.059 131.023 352.842 131.799 352.408 132.432C351.981 133.065 351.377 133.548 350.597 133.879C349.824 134.203 348.915 134.368 347.87 134.376L344.049 134.409V140.681L345.849 140.824V141.796H340.924ZM351.734 141.796L348.278 133.813L349.603 133.802L352.673 140.725L353.987 140.813V141.796H351.734ZM344.049 133.305H347.571C349.007 133.305 350.06 133.01 350.73 132.421C351.399 131.832 351.734 131.056 351.734 130.091C351.734 129.053 351.399 128.251 350.73 127.684C350.06 127.11 349.051 126.823 347.704 126.823H344.049V133.305ZM356.774 141.796V140.824L358.574 140.681V126.823L356.774 126.679V125.719H363.554C364.703 125.719 365.675 125.888 366.47 126.227C367.265 126.565 367.868 127.059 368.28 127.706C368.7 128.354 368.91 129.153 368.91 130.102C368.91 131.023 368.693 131.799 368.258 132.432C367.831 133.065 367.228 133.548 366.447 133.879C365.675 134.203 364.765 134.368 363.72 134.376L359.899 134.409V140.681L361.699 140.824V141.796H356.774ZM367.585 141.796L364.129 133.813L365.454 133.802L368.523 140.725L369.837 140.813V141.796H367.585ZM359.899 133.305H363.422C364.857 133.305 365.91 133.01 366.58 132.421C367.25 131.832 367.585 131.056 367.585 130.091C367.585 129.053 367.25 128.251 366.58 127.684C365.91 127.11 364.902 126.823 363.554 126.823H359.899V133.305ZM379.626 142.017C378.61 142.017 377.69 141.822 376.865 141.432C376.041 141.042 375.334 140.486 374.745 139.764C374.156 139.043 373.703 138.185 373.387 137.192C373.07 136.19 372.912 135.079 372.912 133.857V133.647C372.912 132.425 373.067 131.317 373.376 130.323C373.692 129.322 374.145 128.461 374.734 127.739C375.323 127.011 376.03 126.451 376.854 126.061C377.679 125.671 378.599 125.476 379.615 125.476C380.653 125.476 381.584 125.671 382.408 126.061C383.24 126.451 383.947 127.011 384.528 127.739C385.117 128.461 385.563 129.322 385.865 130.323C386.174 131.317 386.328 132.425 386.328 133.647V133.857C386.328 135.079 386.174 136.19 385.865 137.192C385.563 138.185 385.121 139.043 384.54 139.764C383.958 140.486 383.251 141.042 382.419 141.432C381.595 141.822 380.664 142.017 379.626 142.017ZM379.626 140.858C380.789 140.858 381.768 140.567 382.563 139.985C383.365 139.404 383.973 138.587 384.385 137.534C384.797 136.481 385.003 135.256 385.003 133.857V133.625C385.003 132.226 384.793 131.004 384.374 129.959C383.962 128.914 383.354 128.1 382.552 127.519C381.75 126.93 380.77 126.635 379.615 126.635C378.503 126.635 377.546 126.93 376.744 127.519C375.941 128.1 375.323 128.917 374.889 129.97C374.462 131.015 374.248 132.234 374.248 133.625V133.857C374.248 135.256 374.462 136.481 374.889 137.534C375.323 138.587 375.941 139.404 376.744 139.985C377.553 140.567 378.514 140.858 379.626 140.858ZM393.809 141.785L389.944 126.757L388.718 126.679V125.708H393.025V126.679L391.302 126.79L393.875 137.247L394.471 139.566H394.538L395.211 137.258L398.866 125.708H400.103L403.769 137.258L404.42 139.621H404.487L405.138 137.258L407.678 126.79L405.9 126.679V125.708H410.162V126.679L408.981 126.757L405.193 141.785H403.879L400.003 129.429L399.507 127.817H399.44L398.966 129.429L395.068 141.785H393.809Z" fill="white"/>
<path d="M47.4301 70.7192L46.472 73.5013L45.0091 70.9483C43.9484 69.0973 41.9441 66.3316 39.4336 64.1255C36.8932 61.893 34.0611 60.4278 31.2927 60.6915C27.6021 61.0429 25.1596 62.9945 24.079 65.6406C22.9823 68.3261 23.2075 71.9394 25.3498 75.6731C27.6075 79.608 31.0485 84.4776 34.5732 88.7352C38.1366 93.0394 41.6415 96.5405 44.0158 97.9082L45.8677 98.9751L44.0968 100.172C43.2384 100.752 41.9528 101.612 39.6549 102.309C37.3847 102.996 34.1802 103.509 29.4554 103.509C17.2593 103.509 7.85033 94.9886 4.16935 88.2208C2.92315 85.9295 2.00499 82.5145 1.61476 78.8661C1.22291 75.2025 1.34811 71.164 2.29669 67.602L2.3063 67.5659L2.31792 67.5304L12.79 35.5235L12.8258 35.414L12.8798 35.3123C13.3408 34.4445 14.2498 33.2705 15.5554 32.4804C16.9125 31.6591 18.7111 31.2557 20.7398 32.0671C22.7208 32.8596 23.7635 34.267 24.1901 35.7249C24.2596 35.9624 24.3124 36.1995 24.3508 36.4338L27.1458 28.6449L27.1572 28.6133L27.1701 28.5824C27.5723 27.617 28.425 26.2865 29.7485 25.3768C31.1388 24.4213 33.0172 23.9637 35.2085 24.827C37.3963 25.6889 38.4543 27.2913 38.8076 28.9335C39.1425 30.49 38.8415 32.0276 38.4656 32.9966L37.0543 36.7042C37.062 36.702 37.0698 36.6998 37.0776 36.6976C37.4752 36.5869 37.8326 36.6423 38.0766 36.7065C38.4823 36.8132 38.9618 37.0609 39.4186 37.2967C39.4355 37.3055 39.4525 37.3142 39.4694 37.323C39.5172 37.3476 39.5663 37.373 39.6169 37.3992C40.1327 37.6658 40.7946 38.0078 41.6838 38.429C44.2735 39.6557 45.1973 42.1007 45.3897 44.2229C45.5756 46.274 45.1202 48.3433 44.549 49.4349C44.6242 49.4526 44.6982 49.4764 44.7704 49.5063C45.0414 49.6184 45.2184 49.7871 45.3095 49.8849C45.4054 49.9878 45.477 50.0899 45.5208 50.1553C45.5731 50.2333 45.645 50.3519 45.6993 50.4416C45.7199 50.4755 45.7379 50.5053 45.7514 50.5271C45.9977 50.9252 46.4837 51.6511 47.8237 52.4104C49.6038 53.4192 50.7334 54.6762 51.2587 56.0539C51.775 57.4079 51.6582 58.754 51.1715 59.8546L47.4301 70.7192ZM18.0614 56.5401C18.0615 56.54 18.0613 56.5385 18.0607 56.5358C18.0611 56.5388 18.0614 56.5402 18.0614 56.5401ZM30.6739 53.637C30.6739 53.6371 30.6738 53.6354 30.6734 53.6321C30.6736 53.6352 30.6738 53.6368 30.6739 53.637Z" fill="#A0C7EF" stroke="#0370BB" stroke-width="2.67052"/>
<path d="M45.8075 71.5063L46.8949 73.8438L48.1767 71.607C49.2511 69.7321 51.2151 66.8803 53.6792 64.5945C56.1774 62.2771 58.9512 60.7578 61.6938 61.019C65.3843 61.3705 67.8268 63.3221 68.9075 65.9682C70.0041 68.6537 69.7789 72.2669 67.6366 76.0007C65.3839 79.927 62.0415 84.5372 58.5938 88.6142C55.1273 92.7131 51.6477 96.1615 49.1377 97.8463L47.4915 98.9513L49.1343 100.061C49.1849 100.095 49.2367 100.131 49.29 100.167C50.1062 100.722 51.2623 101.508 53.3158 102.141C55.4687 102.806 58.5515 103.289 63.2679 103.289C69.3457 103.289 75.214 101.27 79.9368 98.3974C84.6349 95.5403 88.3497 91.7454 89.9763 88.0466C92.7632 81.7094 93.2405 74.0307 91.5218 68.3811L91.5141 68.3557L91.5054 68.3306L80.1884 35.8273L80.1547 35.7304L80.1066 35.6399C79.6456 34.7721 78.7366 33.598 77.431 32.8079C76.0739 31.9866 74.2753 31.5832 72.2467 32.3947C70.2656 33.1871 69.2229 34.5946 68.7963 36.0525C68.7268 36.29 68.674 36.5271 68.6357 36.7613L65.8406 28.9725L65.8293 28.9409L65.8164 28.9099C65.4141 27.9446 64.5615 26.6141 63.238 25.7044C61.8477 24.7488 59.9693 24.2913 57.778 25.1545C55.5901 26.0164 54.5322 27.6189 54.1788 29.2611C54.0981 29.6362 54.0543 30.0102 54.0396 30.3754L53.1894 28.2663L53.1693 28.2165L53.1452 28.1684C52.6491 27.1762 51.622 25.8737 50.0751 25.0879C48.4601 24.2676 46.3808 24.0672 44.0102 25.1901C41.6138 26.3253 40.5152 28.1043 40.2473 29.923C40.0645 31.1639 40.2759 32.3548 40.6098 33.2965C40.2895 33.1012 39.9366 32.9281 39.5526 32.7912C38.1186 32.2801 36.3556 32.3134 34.4488 33.3939C32.4187 34.5443 31.6168 36.3505 31.4583 38.0469C31.3056 39.6822 31.7367 41.2474 32.1831 42.2191L32.1831 42.2191L32.1857 42.2248L45.8075 71.5063ZM74.925 56.8676C74.925 56.8674 74.9252 56.866 74.9258 56.8633C74.9253 56.8665 74.925 56.8679 74.925 56.8676ZM62.3126 53.9645C62.3125 53.9644 62.3127 53.9627 62.3131 53.9596C62.3128 53.9631 62.3126 53.9647 62.3126 53.9645Z" fill="#DFC5FF" stroke="#694C97" stroke-width="2.67052"/>
<path d="M136.101 99.3828V91.2627L143.34 89.8706V83.2353H115.778L115.128 76.6L143.2 31.8232H156.842V74.2335H164.498V83.2353H156.842V89.8706L164.034 91.2627V99.3828H136.101ZM127.749 74.2335H143.34V49.8731L143.061 49.7803L141.948 51.7291L127.749 74.2335ZM170.553 99.3828V91.2627L177.745 89.8706V41.3817L170.553 39.9897V31.8232H224.331V50.3371H213.938L213.334 42.2633H191.294V60.8701H214.958V71.3103H191.294V89.8706L198.533 91.2627V99.3828H170.553ZM230.247 99.3828V91.2627L237.439 89.8706V41.3817L230.247 39.9897V31.8232H237.439H250.988H259.154V39.9897L250.988 41.3817V88.989H270.059L270.708 79.1056H281.056V99.3828H230.247ZM316.621 100.357C312.074 100.357 307.928 99.5065 304.185 97.8052C300.442 96.1038 297.21 93.7219 294.488 90.6595C291.796 87.5661 289.724 83.9468 288.27 79.8016C286.816 75.6256 286.089 71.0628 286.089 66.1134V65.0926C286.089 60.1741 286.816 55.6423 288.27 51.4971C289.724 47.321 291.796 43.6863 294.488 40.5929C297.179 37.4995 300.396 35.1021 304.139 33.4008C307.882 31.6994 312.027 30.8487 316.574 30.8487C321.153 30.8487 325.329 31.6994 329.103 33.4008C332.877 35.1021 336.125 37.4995 338.847 40.5929C341.569 43.6863 343.657 47.321 345.111 51.4971C346.596 55.6423 347.338 60.1741 347.338 65.0926V66.1134C347.338 71.0628 346.596 75.6256 345.111 79.8016C343.657 83.9468 341.569 87.5661 338.847 90.6595C336.125 93.7219 332.877 96.1038 329.103 97.8052C325.36 99.5065 321.199 100.357 316.621 100.357ZM316.621 89.8242C320.457 89.8242 323.643 88.8343 326.179 86.8546C328.716 84.8748 330.618 82.1062 331.887 78.5488C333.186 74.9914 333.836 70.8463 333.836 66.1134V64.9998C333.836 60.3288 333.186 56.23 331.887 52.7035C330.588 49.1461 328.654 46.3776 326.087 44.3978C323.55 42.418 320.379 41.4281 316.574 41.4281C312.801 41.4281 309.661 42.418 307.155 44.3978C304.649 46.3466 302.763 49.0843 301.494 52.6107C300.257 56.1372 299.638 60.2669 299.638 64.9998V66.1134C299.638 70.8463 300.257 74.9914 301.494 78.5488C302.763 82.1062 304.649 84.8748 307.155 86.8546C309.692 88.8343 312.847 89.8242 316.621 89.8242ZM367.963 99.3828V91.2627L375.201 89.8706V42.2633H362.905L362.162 50.3371H351.908V31.8232H412.183V50.3371H401.882L401.139 42.2633H388.75V89.8706L396.035 91.2627V99.3828H367.963Z" fill="white"/>
</svg>
