<svg width="89" height="88" viewBox="0 0 89 88" fill="none" xmlns="http://www.w3.org/2000/svg">
<g id="Calendar">
<path id="Vector" d="M72 13.75H17C12.4437 13.75 8.75 17.4437 8.75 22V71.5C8.75 76.0564 12.4437 79.75 17 79.75H72C76.5564 79.75 80.25 76.0564 80.25 71.5V22C80.25 17.4437 76.5564 13.75 72 13.75Z" stroke="#743EB6" stroke-width="5.125" stroke-linejoin="round"/>
<path id="Vector_2" d="M51.375 44C53.6532 44 55.5 42.1532 55.5 39.875C55.5 37.5968 53.6532 35.75 51.375 35.75C49.0968 35.75 47.25 37.5968 47.25 39.875C47.25 42.1532 49.0968 44 51.375 44Z" fill="#0370BB"/>
<path id="Vector_3" d="M65.125 44C67.4032 44 69.25 42.1532 69.25 39.875C69.25 37.5968 67.4032 35.75 65.125 35.75C62.8468 35.75 61 37.5968 61 39.875C61 42.1532 62.8468 44 65.125 44Z" fill="#0370BB"/>
<path id="Vector_4" d="M51.375 57.75C53.6532 57.75 55.5 55.9032 55.5 53.625C55.5 51.3468 53.6532 49.5 51.375 49.5C49.0968 49.5 47.25 51.3468 47.25 53.625C47.25 55.9032 49.0968 57.75 51.375 57.75Z" fill="#F67659"/>
<path id="Vector_5" d="M65.125 57.75C67.4032 57.75 69.25 55.9032 69.25 53.625C69.25 51.3468 67.4032 49.5 65.125 49.5C62.8468 49.5 61 51.3468 61 53.625C61 55.9032 62.8468 57.75 65.125 57.75Z" fill="#0370BB"/>
<path id="Vector_6" d="M23.875 57.75C26.1532 57.75 28 55.9032 28 53.625C28 51.3468 26.1532 49.5 23.875 49.5C21.5968 49.5 19.75 51.3468 19.75 53.625C19.75 55.9032 21.5968 57.75 23.875 57.75Z" fill="#0370BB"/>
<path id="Vector_7" d="M37.625 57.75C39.9032 57.75 41.75 55.9032 41.75 53.625C41.75 51.3468 39.9032 49.5 37.625 49.5C35.3468 49.5 33.5 51.3468 33.5 53.625C33.5 55.9032 35.3468 57.75 37.625 57.75Z" fill="#0370BB"/>
<path id="Vector_8" d="M23.875 71.5C26.1532 71.5 28 69.6532 28 67.375C28 65.0968 26.1532 63.25 23.875 63.25C21.5968 63.25 19.75 65.0968 19.75 67.375C19.75 69.6532 21.5968 71.5 23.875 71.5Z" fill="#0370BB"/>
<path id="Vector_9" d="M37.625 71.5C39.9032 71.5 41.75 69.6532 41.75 67.375C41.75 65.0968 39.9032 63.25 37.625 63.25C35.3468 63.25 33.5 65.0968 33.5 67.375C33.5 69.6532 35.3468 71.5 37.625 71.5Z" fill="#0370BB"/>
<path id="Vector_10" d="M51.375 71.5C53.6532 71.5 55.5 69.6532 55.5 67.375C55.5 65.0968 53.6532 63.25 51.375 63.25C49.0968 63.25 47.25 65.0968 47.25 67.375C47.25 69.6532 49.0968 71.5 51.375 71.5Z" fill="#0370BB"/>
<path id="Vector_11" d="M22.5 8.25V13.75M66.5 8.25V13.75" stroke="#743EB6" stroke-width="5.125" stroke-linecap="round" stroke-linejoin="round"/>
<path id="Vector_12" d="M80.25 27.5H8.75" stroke="#694C97" stroke-width="5.125" stroke-linejoin="round"/>
</g>
</svg>
