<svg width="18" height="20" viewBox="0 0 18 20" fill="none" xmlns="http://www.w3.org/2000/svg">
<path d="M11.5 16C10.8 16 10.2083 15.7583 9.725 15.275C9.24167 14.7917 9 14.2 9 13.5C9 12.8 9.24167 12.2083 9.725 11.725C10.2083 11.2417 10.8 11 11.5 11C12.2 11 12.7917 11.2417 13.275 11.725C13.7583 12.2083 14 12.8 14 13.5C14 14.2 13.7583 14.7917 13.275 15.275C12.7917 15.7583 12.2 16 11.5 16ZM2 20C1.45 20 0.979333 19.8043 0.588 19.413C0.196667 19.0217 0.000666667 18.5507 0 18V4C0 3.45 0.196 2.97933 0.588 2.588C0.98 2.19667 1.45067 2.00067 2 2H3V0H5V2H13V0H15V2H16C16.55 2 17.021 2.196 17.413 2.588C17.805 2.98 18.0007 3.45067 18 4V18C18 18.55 17.8043 19.021 17.413 19.413C17.0217 19.805 16.5507 20.0007 16 20H2ZM2 18H16V8H2V18Z" fill="white"/>
</svg>
