<svg width="403" height="144" viewBox="0 0 403 144" fill="none" xmlns="http://www.w3.org/2000/svg">
<path d="M6.69296 137.113V136.182L8.43753 136.042V133.163H1.13815V132.446L8.3198 121.529H9.72188V132.093H12.1621V133.163H9.72188V136.042L11.4665 136.182V137.113H6.69296ZM2.65796 132.093H8.43753V123.359L8.37331 123.338L7.82747 124.344L2.65796 132.093ZM20.5519 137.113V136.182L22.2965 136.042V122.61L20.5519 122.471V121.529H32.0897V124.943H30.998L30.8909 122.6H23.5809V128.722H29.9277V129.803H23.5809V136.042L25.3254 136.182V137.113H20.5519ZM41.6842 137.337C40.6139 137.337 39.6685 137.134 38.8479 136.727C38.0345 136.314 37.3959 135.718 36.9321 134.94C36.4683 134.155 36.2364 133.206 36.2364 132.093V122.61L34.4918 122.471V121.529H39.2653V122.471L37.5207 122.61V132.093C37.5207 132.978 37.6956 133.731 38.0452 134.351C38.402 134.965 38.8943 135.436 39.5222 135.764C40.1501 136.085 40.8743 136.246 41.6949 136.246C42.5154 136.246 43.2432 136.085 43.8783 135.764C44.5133 135.443 45.0092 134.976 45.366 134.362C45.7227 133.741 45.9011 132.985 45.9011 132.093V122.61L44.1566 122.471V121.529H48.93V122.471L47.1855 122.61V132.093C47.1855 133.228 46.9536 134.184 46.4898 134.961C46.0331 135.739 45.391 136.331 44.5633 136.738C43.7356 137.138 42.7759 137.337 41.6842 137.337ZM55.0247 137.113V136.182L56.7693 136.042V122.578H52.3918L52.2527 124.954H51.2038V121.529H63.6084V124.954H62.5703L62.4204 122.578H58.0536V136.042L59.7982 136.182V137.113H55.0247ZM73.1387 137.337C72.0684 137.337 71.123 137.134 70.3025 136.727C69.489 136.314 68.8504 135.718 68.3866 134.94C67.9229 134.155 67.691 133.206 67.691 132.093V122.61L65.9464 122.471V121.529H70.7199V122.471L68.9753 122.61V132.093C68.9753 132.978 69.1501 133.731 69.4997 134.351C69.8565 134.965 70.3488 135.436 70.9767 135.764C71.6047 136.085 72.3289 136.246 73.1494 136.246C73.97 136.246 74.6978 136.085 75.3328 135.764C75.9679 135.443 76.4638 134.976 76.8205 134.362C77.1773 133.741 77.3557 132.985 77.3557 132.093V122.61L75.6111 122.471V121.529H80.3846V122.471L78.64 122.61V132.093C78.64 133.228 78.4081 134.184 77.9443 134.961C77.4877 135.739 76.8455 136.331 76.0178 136.738C75.1901 137.138 74.2304 137.337 73.1387 137.337ZM82.5406 137.123V136.182L84.2852 136.042V122.61L82.5406 122.471V121.54H89.1122C90.2253 121.54 91.1671 121.704 91.9377 122.032C92.7084 122.36 93.2934 122.839 93.693 123.466C94.0997 124.094 94.3031 124.869 94.3031 125.789C94.3031 126.681 94.0926 127.434 93.6716 128.047C93.2578 128.661 92.6727 129.128 91.9163 129.449C91.1671 129.763 90.2859 129.924 89.2727 129.931L85.5695 129.963V136.042L87.3141 136.182V137.123H82.5406ZM93.0187 137.123L89.6687 129.385L90.9531 129.374L93.9285 136.085L95.2021 136.171V137.123H93.0187ZM85.5695 128.893H88.9837C90.3751 128.893 91.3955 128.607 92.0448 128.037C92.6941 127.466 93.0187 126.713 93.0187 125.778C93.0187 124.772 92.6941 123.994 92.0448 123.445C91.3955 122.889 90.4179 122.61 89.1122 122.61H85.5695V128.893ZM97.904 137.113V136.182L99.6485 136.042V122.61L97.904 122.471V121.529H109.099V124.943H108.008L107.9 122.589H100.933V128.486H107.216V129.556H100.933V136.074H108.232L108.339 133.698H109.42V137.113H97.904ZM118.356 137.113V136.182L120.101 136.042V122.61L118.356 122.471V121.529H120.101H121.385H123.129V122.471L121.385 122.61V136.053H127.924L128.042 133.538H129.091V137.113H118.356ZM131.686 137.113V136.182L133.43 136.042V122.61L131.686 122.471V121.529H142.881V124.943H141.789L141.682 122.589H134.715V128.486H140.997V129.556H134.715V136.074H142.014L142.121 133.698H143.202V137.113H131.686ZM145.979 137.113V136.182L147.124 136.107L152.657 121.529H153.878L159.368 136.107L160.513 136.182V137.113H156.671V136.182L158.041 136.085L156.746 132.564H149.757L148.451 136.085L149.821 136.182V137.113H145.979ZM150.174 131.44H156.329L153.514 123.788L153.3 123.156H153.235L153.011 123.788L150.174 131.44ZM162.841 137.113V136.182L164.585 136.042V122.61L162.841 122.471V121.529H164.585H168.866C170.194 121.529 171.36 121.861 172.366 122.525C173.372 123.181 174.161 124.087 174.732 125.243C175.31 126.392 175.599 127.708 175.599 129.193V129.449C175.599 130.926 175.317 132.243 174.753 133.399C174.189 134.548 173.404 135.454 172.398 136.117C171.399 136.781 170.24 137.113 168.92 137.113H162.841ZM165.87 136.042H168.866C169.951 136.042 170.9 135.753 171.713 135.175C172.527 134.59 173.162 133.802 173.618 132.81C174.082 131.811 174.314 130.691 174.314 129.449V129.171C174.314 127.915 174.082 126.795 173.618 125.81C173.162 124.819 172.527 124.037 171.713 123.466C170.9 122.896 169.951 122.61 168.866 122.61H165.87V136.042ZM178.183 137.113V136.182L179.927 136.042V122.61L178.183 122.471V121.529H189.378V124.943H188.286L188.179 122.589H181.212V128.486H187.494V129.556H181.212V136.074H188.511L188.618 133.698H189.699V137.113H178.183ZM192.626 137.123V136.182L194.37 136.042V122.61L192.626 122.471V121.54H199.197C200.31 121.54 201.252 121.704 202.023 122.032C202.793 122.36 203.378 122.839 203.778 123.466C204.185 124.094 204.388 124.869 204.388 125.789C204.388 126.681 204.178 127.434 203.757 128.047C203.343 128.661 202.758 129.128 202.001 129.449C201.252 129.763 200.371 129.924 199.358 129.931L195.654 129.963V136.042L197.399 136.182V137.123H192.626ZM203.104 137.123L199.754 129.385L201.038 129.374L204.013 136.085L205.287 136.171V137.123H203.104ZM195.654 128.893H199.069C200.46 128.893 201.48 128.607 202.13 128.037C202.779 127.466 203.104 126.713 203.104 125.778C203.104 124.772 202.779 123.994 202.13 123.445C201.48 122.889 200.503 122.61 199.197 122.61H195.654V128.893ZM213.565 137.337C212.673 137.337 211.781 137.202 210.889 136.931C210.005 136.66 209.148 136.239 208.321 135.668V132.65H209.391L209.552 135.079C210.179 135.472 210.832 135.764 211.51 135.957C212.188 136.149 212.873 136.246 213.565 136.246C214.386 136.246 215.099 136.121 215.706 135.871C216.319 135.614 216.794 135.261 217.129 134.812C217.472 134.355 217.643 133.83 217.643 133.238C217.643 132.667 217.504 132.168 217.226 131.74C216.954 131.305 216.508 130.923 215.888 130.595C215.274 130.266 214.439 129.967 213.383 129.696C212.249 129.403 211.321 129.061 210.6 128.668C209.887 128.276 209.359 127.805 209.016 127.255C208.681 126.699 208.513 126.039 208.513 125.275C208.513 124.498 208.72 123.813 209.134 123.22C209.548 122.621 210.126 122.154 210.868 121.818C211.617 121.476 212.488 121.304 213.48 121.304C214.528 121.304 215.463 121.461 216.284 121.775C217.111 122.089 217.811 122.493 218.381 122.985V125.768H217.322L217.161 123.563C216.712 123.199 216.18 122.913 215.567 122.707C214.953 122.5 214.257 122.396 213.48 122.396C212.716 122.396 212.06 122.525 211.51 122.781C210.961 123.031 210.536 123.37 210.237 123.798C209.944 124.226 209.798 124.712 209.798 125.254C209.798 125.775 209.915 126.235 210.151 126.635C210.386 127.027 210.793 127.377 211.371 127.683C211.949 127.983 212.759 128.272 213.801 128.55C215.492 128.986 216.769 129.574 217.632 130.316C218.496 131.051 218.927 132.018 218.927 133.217C218.927 134.045 218.699 134.769 218.242 135.39C217.793 136.003 217.165 136.481 216.359 136.824C215.552 137.166 214.621 137.337 213.565 137.337ZM234.22 137.337C233.236 137.337 232.344 137.148 231.545 136.77C230.746 136.392 230.061 135.853 229.49 135.154C228.919 134.455 228.48 133.624 228.173 132.66C227.867 131.69 227.713 130.612 227.713 129.428V129.225C227.713 128.04 227.863 126.966 228.163 126.003C228.469 125.033 228.908 124.198 229.479 123.499C230.05 122.792 230.735 122.25 231.534 121.872C232.333 121.494 233.225 121.304 234.21 121.304C235.216 121.304 236.118 121.494 236.918 121.872C237.724 122.25 238.409 122.792 238.973 123.499C239.543 124.198 239.975 125.033 240.268 126.003C240.567 126.966 240.717 128.04 240.717 129.225V129.428C240.717 130.612 240.567 131.69 240.268 132.66C239.975 133.624 239.547 134.455 238.983 135.154C238.42 135.853 237.735 136.392 236.928 136.77C236.129 137.148 235.227 137.337 234.22 137.337ZM234.22 136.214C235.348 136.214 236.297 135.932 237.067 135.368C237.845 134.804 238.434 134.012 238.833 132.992C239.233 131.972 239.433 130.784 239.433 129.428V129.203C239.433 127.848 239.229 126.663 238.823 125.65C238.423 124.637 237.834 123.848 237.057 123.285C236.279 122.714 235.33 122.428 234.21 122.428C233.132 122.428 232.205 122.714 231.427 123.285C230.649 123.848 230.05 124.64 229.629 125.661C229.215 126.674 229.008 127.855 229.008 129.203V129.428C229.008 130.784 229.215 131.972 229.629 132.992C230.05 134.012 230.649 134.804 231.427 135.368C232.212 135.932 233.143 136.214 234.22 136.214ZM243.355 137.113V136.182L245.099 136.042V122.61L243.355 122.471V121.529H254.892V124.943H253.801L253.694 122.6H246.384V128.722H252.73V129.803H246.384V136.042L248.128 136.182V137.113H243.355ZM267.36 137.113V136.182L269.105 136.042V122.578H264.727L264.588 124.954H263.539V121.529H275.944V124.954H274.906L274.756 122.578H270.389V136.042L272.134 136.182V137.113H267.36ZM284.885 137.337C283.901 137.337 283.009 137.148 282.21 136.77C281.411 136.392 280.726 135.853 280.155 135.154C279.584 134.455 279.145 133.624 278.838 132.66C278.531 131.69 278.378 130.612 278.378 129.428V129.225C278.378 128.04 278.528 126.966 278.828 126.003C279.134 125.033 279.573 124.198 280.144 123.499C280.715 122.792 281.4 122.25 282.199 121.872C282.998 121.494 283.89 121.304 284.875 121.304C285.881 121.304 286.783 121.494 287.583 121.872C288.389 122.25 289.074 122.792 289.638 123.499C290.208 124.198 290.64 125.033 290.933 126.003C291.232 126.966 291.382 128.04 291.382 129.225V129.428C291.382 130.612 291.232 131.69 290.933 132.66C290.64 133.624 290.212 134.455 289.648 135.154C289.085 135.853 288.4 136.392 287.593 136.77C286.794 137.148 285.892 137.337 284.885 137.337ZM284.885 136.214C286.013 136.214 286.962 135.932 287.732 135.368C288.51 134.804 289.099 134.012 289.498 132.992C289.898 131.972 290.098 130.784 290.098 129.428V129.203C290.098 127.848 289.894 126.663 289.488 125.65C289.088 124.637 288.499 123.848 287.722 123.285C286.944 122.714 285.995 122.428 284.875 122.428C283.797 122.428 282.87 122.714 282.092 123.285C281.314 123.848 280.715 124.64 280.294 125.661C279.88 126.674 279.673 127.855 279.673 129.203V129.428C279.673 130.784 279.88 131.972 280.294 132.992C280.715 134.012 281.314 134.804 282.092 135.368C282.877 135.932 283.808 136.214 284.885 136.214ZM294.084 137.113V136.182L295.829 136.042V122.61L294.084 122.471V121.529H295.829H297.562L303.321 134.886H303.385L309.068 121.529H312.632V122.471L310.887 122.61V136.042L312.632 136.182V137.113H307.859V136.182L309.646 136.042V129.396V123.402L309.592 123.392L303.813 136.856H302.914L297.07 123.434L297.006 123.456L297.049 129.246V136.042L298.857 136.182V137.113H294.084ZM321.777 137.337C320.792 137.337 319.9 137.148 319.101 136.77C318.302 136.392 317.617 135.853 317.046 135.154C316.476 134.455 316.037 133.624 315.73 132.66C315.423 131.69 315.27 130.612 315.27 129.428V129.225C315.27 128.04 315.42 126.966 315.719 126.003C316.026 125.033 316.465 124.198 317.036 123.499C317.607 122.792 318.291 122.25 319.091 121.872C319.89 121.494 320.782 121.304 321.766 121.304C322.772 121.304 323.675 121.494 324.474 121.872C325.28 122.25 325.965 122.792 326.529 123.499C327.1 124.198 327.532 125.033 327.824 126.003C328.124 126.966 328.274 128.04 328.274 129.225V129.428C328.274 130.612 328.124 131.69 327.824 132.66C327.532 133.624 327.104 134.455 326.54 135.154C325.976 135.853 325.291 136.392 324.485 136.77C323.686 137.148 322.783 137.337 321.777 137.337ZM321.777 136.214C322.904 136.214 323.853 135.932 324.624 135.368C325.402 134.804 325.99 134.012 326.39 132.992C326.79 131.972 326.989 130.784 326.989 129.428V129.203C326.989 127.848 326.786 126.663 326.379 125.65C325.98 124.637 325.391 123.848 324.613 123.285C323.836 122.714 322.887 122.428 321.766 122.428C320.689 122.428 319.761 122.714 318.984 123.285C318.206 123.848 317.607 124.64 317.186 125.661C316.772 126.674 316.565 127.855 316.565 129.203V129.428C316.565 130.784 316.772 131.972 317.186 132.992C317.607 134.012 318.206 134.804 318.984 135.368C319.768 135.932 320.7 136.214 321.777 136.214ZM330.911 137.123V136.182L332.656 136.042V122.61L330.911 122.471V121.54H337.483C338.596 121.54 339.538 121.704 340.309 122.032C341.079 122.36 341.664 122.839 342.064 123.466C342.47 124.094 342.674 124.869 342.674 125.789C342.674 126.681 342.463 127.434 342.042 128.047C341.629 128.661 341.043 129.128 340.287 129.449C339.538 129.763 338.657 129.924 337.643 129.931L333.94 129.963V136.042L335.685 136.182V137.123H330.911ZM341.389 137.123L338.039 129.385L339.324 129.374L342.299 136.085L343.573 136.171V137.123H341.389ZM333.94 128.893H337.355C338.746 128.893 339.766 128.607 340.416 128.037C341.065 127.466 341.389 126.713 341.389 125.778C341.389 124.772 341.065 123.994 340.416 123.445C339.766 122.889 338.789 122.61 337.483 122.61H333.94V128.893ZM346.275 137.123V136.182L348.019 136.042V122.61L346.275 122.471V121.54H352.846C353.959 121.54 354.901 121.704 355.672 122.032C356.442 122.36 357.028 122.839 357.427 123.466C357.834 124.094 358.037 124.869 358.037 125.789C358.037 126.681 357.827 127.434 357.406 128.047C356.992 128.661 356.407 129.128 355.65 129.449C354.901 129.763 354.02 129.924 353.007 129.931L349.304 129.963V136.042L351.048 136.182V137.123H346.275ZM356.753 137.123L353.403 129.385L354.687 129.374L357.663 136.085L358.936 136.171V137.123H356.753ZM349.304 128.893H352.718C354.109 128.893 355.13 128.607 355.779 128.037C356.428 127.466 356.753 126.713 356.753 125.778C356.753 124.772 356.428 123.994 355.779 123.445C355.13 122.889 354.152 122.61 352.846 122.61H349.304V128.893ZM368.424 137.337C367.439 137.337 366.547 137.148 365.748 136.77C364.949 136.392 364.264 135.853 363.693 135.154C363.122 134.455 362.683 133.624 362.377 132.66C362.07 131.69 361.916 130.612 361.916 129.428V129.225C361.916 128.04 362.066 126.966 362.366 126.003C362.673 125.033 363.112 124.198 363.682 123.499C364.253 122.792 364.938 122.25 365.737 121.872C366.536 121.494 367.428 121.304 368.413 121.304C369.419 121.304 370.322 121.494 371.121 121.872C371.927 122.25 372.612 122.792 373.176 123.499C373.747 124.198 374.178 125.033 374.471 126.003C374.771 126.966 374.92 128.04 374.92 129.225V129.428C374.92 130.612 374.771 131.69 374.471 132.66C374.178 133.624 373.75 134.455 373.187 135.154C372.623 135.853 371.938 136.392 371.132 136.77C370.332 137.148 369.43 137.337 368.424 137.337ZM368.424 136.214C369.551 136.214 370.5 135.932 371.271 135.368C372.048 134.804 372.637 134.012 373.037 132.992C373.436 131.972 373.636 130.784 373.636 129.428V129.203C373.636 127.848 373.433 126.663 373.026 125.65C372.626 124.637 372.038 123.848 371.26 123.285C370.482 122.714 369.533 122.428 368.413 122.428C367.336 122.428 366.408 122.714 365.63 123.285C364.853 123.848 364.253 124.64 363.832 125.661C363.418 126.674 363.211 127.855 363.211 129.203V129.428C363.211 130.784 363.418 131.972 363.832 132.992C364.253 134.012 364.853 134.804 365.63 135.368C366.415 135.932 367.346 136.214 368.424 136.214ZM382.171 137.113L378.425 122.546L377.237 122.471V121.529H381.411V122.471L379.741 122.578L382.235 132.714L382.813 134.961H382.877L383.53 132.724L387.073 121.529H388.272L391.825 132.724L392.456 135.015H392.521L393.152 132.724L395.614 122.578L393.891 122.471V121.529H398.022V122.471L396.877 122.546L393.206 137.113H391.932L388.175 125.136L387.694 123.573H387.629L387.169 125.136L383.391 137.113H382.171Z" fill="black"/>
<path d="M46.4366 68.4926L45.508 71.1892L44.09 68.7147C43.0619 66.9206 41.1192 64.2399 38.6859 62.1016C36.2235 59.9377 33.4785 58.5175 30.7951 58.7731C27.2179 59.1138 24.8505 61.0053 23.8031 63.5702C22.7401 66.1731 22.9584 69.6754 25.0348 73.2944C27.2232 77.1083 30.5584 81.8282 33.9748 85.955C37.4287 90.127 40.8259 93.5205 43.1272 94.8462L44.9223 95.8802L43.2057 97.04C42.3737 97.6022 41.1277 98.4365 38.9003 99.1113C36.6999 99.7779 33.5939 100.275 29.0142 100.275C17.1929 100.275 8.07313 92.0163 4.50526 85.4564C3.29736 83.2356 2.40741 79.9255 2.02917 76.3892C1.64936 72.8382 1.77072 68.9238 2.69015 65.4712L2.69947 65.4362L2.71072 65.4018L12.861 34.3786L12.8957 34.2724L12.9481 34.1738C13.3949 33.3327 14.276 32.1947 15.5414 31.4289C16.8568 30.6328 18.6001 30.2418 20.5665 31.0284C22.4867 31.7964 23.4973 33.1606 23.9108 34.5738C23.9782 34.804 24.0294 35.0337 24.0665 35.2608L26.7757 27.7113L26.7867 27.6807L26.7992 27.6507C27.1891 26.715 28.0155 25.4254 29.2984 24.5437C30.6459 23.6175 32.4666 23.174 34.5906 24.0107C36.7112 24.8461 37.7366 26.3993 38.0791 27.991C38.4037 29.4997 38.1119 30.9901 37.7476 31.9292L36.3797 35.523C36.3871 35.5208 36.3947 35.5186 36.4022 35.5165C36.7876 35.4092 37.134 35.4629 37.3706 35.5252C37.7637 35.6286 38.2285 35.8686 38.6713 36.0973C38.6877 36.1058 38.7041 36.1142 38.7205 36.1227C38.7669 36.1466 38.8145 36.1712 38.8635 36.1965C39.3635 36.4549 40.005 36.7865 40.8669 37.1948C43.377 38.3838 44.2724 40.7536 44.4589 42.8106C44.6391 44.7987 44.1977 46.8044 43.6441 47.8624C43.7169 47.8796 43.7886 47.9027 43.8586 47.9316C44.1213 48.0403 44.2929 48.2038 44.3812 48.2986C44.4742 48.3983 44.5436 48.4973 44.586 48.5606C44.6367 48.6363 44.7064 48.7513 44.759 48.8382C44.779 48.8711 44.7965 48.8999 44.8095 48.9211C45.0482 49.307 45.5193 50.0105 46.8181 50.7465L46.18 51.8725L46.8181 50.7465C48.5435 51.7243 49.6384 52.9427 50.1476 54.2781C50.648 55.5904 50.5347 56.8952 50.063 57.962L46.4366 68.4926ZM17.9705 54.7493C17.9705 54.7492 17.9703 54.7477 17.9697 54.7451C17.9701 54.7481 17.9704 54.7494 17.9705 54.7493ZM30.1953 51.9354C30.1954 51.9353 30.1952 51.9337 30.1948 51.9306C30.195 51.9339 30.1952 51.9354 30.1953 51.9354ZM29.7227 51.5045L29.7157 51.5218L29.7227 51.5045Z" fill="#A0C7EF" stroke="#0370BB" stroke-width="2.58845"/>
<path d="M44.8635 69.2559L45.9175 71.5216L47.1599 69.3535C48.2013 67.5363 50.1049 64.7721 52.4933 62.5566C54.9147 60.3104 57.6033 58.8378 60.2616 59.0909C63.8388 59.4316 66.2062 61.3232 67.2536 63.888C68.3166 66.491 68.0983 69.9932 66.0219 73.6122C63.8383 77.4179 60.5987 81.8865 57.2569 85.8381C53.897 89.8111 50.5243 93.1535 48.0914 94.7865L46.4958 95.8576L48.0881 96.9335C48.1371 96.9666 48.1873 97.0007 48.239 97.0358C49.0301 97.5737 50.1507 98.3356 52.1411 98.9496C54.2278 99.5934 57.2159 100.062 61.7874 100.062C67.6784 100.062 73.3664 98.1046 77.9441 95.3207C82.4978 92.5514 86.0984 88.8731 87.6751 85.2879C90.3763 79.1455 90.8389 71.7028 89.1731 66.2267L89.1656 66.2021L89.1571 66.1778L78.1879 34.6733L78.1553 34.5795L78.1086 34.4917C77.6618 33.6506 76.7807 32.5126 75.5153 31.7468C74.1999 30.9507 72.4566 30.5597 70.4902 31.3462C68.5701 32.1143 67.5594 33.4785 67.1459 34.8916C67.0785 35.1218 67.0274 35.3516 66.9902 35.5787L64.281 28.0292L64.2701 27.9986L64.2575 27.9686C63.8677 27.0328 63.0412 25.7433 61.7584 24.8615C60.4108 23.9353 58.5901 23.4918 56.4662 24.3286C54.3456 25.164 53.3201 26.7172 52.9776 28.3089C52.8994 28.6725 52.8569 29.035 52.8427 29.389L52.0186 27.3447L51.9991 27.2964L51.9758 27.2498C51.4949 26.2881 50.4994 25.0256 49 24.264C47.4346 23.4689 45.4192 23.2747 43.1214 24.3631C40.7987 25.4633 39.7339 27.1877 39.4742 28.9505C39.297 30.1532 39.5019 31.3076 39.8256 32.2203C39.5151 32.031 39.173 31.8633 38.8008 31.7306C37.4109 31.2351 35.7021 31.2674 33.8539 32.3147C31.8862 33.4298 31.1089 35.1805 30.9553 36.8248C30.8072 38.4098 31.2251 39.9269 31.6578 40.8687L31.6578 40.8687L31.6604 40.8743L44.8635 69.2559ZM73.0863 55.0672C73.0862 55.0671 73.0864 55.0657 73.087 55.0629C73.0866 55.0659 73.0863 55.0672 73.0863 55.0672ZM61.334 51.8223L61.341 51.8396L61.334 51.8223Z" fill="#DFC5FF" stroke="#694C97" stroke-width="2.58845"/>
<path d="M132.992 96.3175V88.4469L140.008 87.0977V80.6662H113.293L112.663 74.2348L139.873 30.834H153.096V71.9411H160.517V80.6662H153.096V87.0977L160.067 88.4469V96.3175H132.992ZM124.896 71.9411H140.008V48.3292L139.738 48.2393L138.659 50.1282L124.896 71.9411ZM166.385 96.3175V88.4469L173.356 87.0977V40.0988L166.385 38.7496V30.834H218.511V48.779H208.437L207.852 40.9533H186.489V58.9883H209.426V69.1077H186.489V87.0977L193.505 88.4469V96.3175H166.385ZM224.244 96.3175V88.4469L231.215 87.0977V40.0988L224.244 38.7496V30.834H231.215H244.348H252.264V38.7496L244.348 40.0988V86.2431H262.833L263.463 76.6635H273.492V96.3175H224.244ZM307.964 97.262C303.557 97.262 299.539 96.4375 295.911 94.7884C292.283 93.1393 289.15 90.8306 286.511 87.8622C283.903 84.8639 281.894 81.3559 280.485 77.3381C279.075 73.2903 278.371 68.8678 278.371 64.0705V63.081C278.371 58.3137 279.075 53.9211 280.485 49.9034C281.894 45.8556 283.903 42.3326 286.511 39.3342C289.12 36.3359 292.238 34.0122 295.866 32.3631C299.494 30.714 303.512 29.8895 307.919 29.8895C312.357 29.8895 316.405 30.714 320.063 32.3631C323.721 34.0122 326.869 36.3359 329.507 39.3342C332.146 42.3326 334.17 45.8556 335.579 49.9034C337.018 53.9211 337.738 58.3137 337.738 63.081V64.0705C337.738 68.8678 337.018 73.2903 335.579 77.3381C334.17 81.3559 332.146 84.8639 329.507 87.8622C326.869 90.8306 323.721 93.1393 320.063 94.7884C316.435 96.4375 312.402 97.262 307.964 97.262ZM307.964 87.0527C311.682 87.0527 314.771 86.0932 317.229 84.1743C319.688 82.2554 321.532 79.5719 322.761 76.1238C324.02 72.6757 324.65 68.6579 324.65 64.0705V62.9911C324.65 58.4636 324.02 54.4908 322.761 51.0727C321.502 47.6246 319.628 44.9411 317.139 43.0222C314.681 41.1033 311.607 40.1438 307.919 40.1438C304.261 40.1438 301.218 41.1033 298.789 43.0222C296.361 44.9111 294.532 47.5647 293.302 50.9828C292.103 54.4009 291.503 58.4036 291.503 62.9911V64.0705C291.503 68.6579 292.103 72.6757 293.302 76.1238C294.532 79.5719 296.361 82.2554 298.789 84.1743C301.248 86.0932 304.306 87.0527 307.964 87.0527ZM357.728 96.3175V88.4469L364.744 87.0977V40.9533H352.826L352.106 48.779H342.167V30.834H400.589V48.779H390.605L389.885 40.9533H377.877V87.0977L384.938 88.4469V96.3175H357.728Z" fill="#694C97"/>
</svg>
