<svg width="89" height="88" viewBox="0 0 89 88" fill="none" xmlns="http://www.w3.org/2000/svg">
<path d="M59.17 23.0286C59.1696 25.2349 58.2971 27.3516 56.7427 28.9173C53.164 32.5253 49.6917 36.2873 45.9773 39.7633C45.5627 40.1411 45.0187 40.3452 44.4579 40.3336C43.897 40.322 43.3621 40.0955 42.9633 39.7009L32.264 28.9209C30.7087 27.3542 29.8359 25.2362 29.8359 23.0286C29.8359 20.821 30.7087 18.703 32.264 17.1363C33.0401 16.3545 33.9632 15.734 34.9801 15.3106C35.9971 14.8871 37.0878 14.6691 38.1893 14.6691C39.2909 14.6691 40.3816 14.8871 41.3986 15.3106C42.4155 15.734 43.3386 16.3545 44.1147 17.1363L44.5033 17.5286L44.892 17.1363C46.0569 15.9588 47.5458 15.1546 49.1693 14.826C50.7927 14.4974 52.4772 14.6594 54.0083 15.2913C55.5394 15.9231 56.8478 16.9963 57.767 18.3742C58.6862 19.752 59.1746 21.3723 59.17 23.0286Z" stroke="#F67659" stroke-width="5.5" stroke-linejoin="round"/>
<path d="M66.5 73.3333L80.5213 59.312C80.934 58.8998 81.1662 58.3406 81.1667 57.7573V38.5C81.1667 37.0413 80.5872 35.6424 79.5558 34.6109C78.5243 33.5795 77.1254 33 75.6667 33C74.208 33 72.809 33.5795 71.7776 34.6109C70.7461 35.6424 70.1667 37.0413 70.1667 38.5V55" stroke="#694C97" stroke-width="5.5" stroke-linecap="round" stroke-linejoin="round"/>
<path d="M66.5026 58.6667L69.6486 55.5207C69.8139 55.3556 69.945 55.1596 70.0343 54.9437C70.1237 54.7279 70.1695 54.4966 70.1693 54.263C70.1688 53.9333 70.0766 53.6102 69.9031 53.3298C69.7295 53.0495 69.4815 52.8229 69.1866 52.6753L67.5623 51.865C66.1861 51.1769 64.6284 50.9391 63.1097 51.1852C61.5909 51.4313 60.188 52.1489 59.0996 53.2363L55.8179 56.518C54.4426 57.8929 53.6697 59.7579 53.6693 61.7027V73.3333M22.5026 73.3333L8.48127 59.312C8.06857 58.8998 7.83645 58.3406 7.83594 57.7573V38.5C7.83594 37.0413 8.4154 35.6424 9.44685 34.6109C10.4783 33.5795 11.8772 33 13.3359 33C14.7946 33 16.1936 33.5795 17.225 34.6109C18.2565 35.6424 18.8359 37.0413 18.8359 38.5V55" stroke="#694C97" stroke-width="5.5" stroke-linecap="round" stroke-linejoin="round"/>
<path d="M22.5026 58.6696L19.3566 55.5236C19.1915 55.3585 19.0605 55.1624 18.9712 54.9466C18.8818 54.7308 18.8359 54.4995 18.8359 54.266C18.8359 53.595 19.2173 52.9826 19.8186 52.6783L21.4429 51.868C22.8191 51.1799 24.3768 50.9421 25.8955 51.1882C27.4143 51.4343 28.8172 52.1518 29.9056 53.2393L33.1873 56.521C34.5626 57.8959 35.3355 59.7609 35.3359 61.7056V73.3363" stroke="#694C97" stroke-width="5.5" stroke-linecap="round" stroke-linejoin="round"/>
</svg>
