<svg width="57" height="43" viewBox="0 0 57 43" fill="none" xmlns="http://www.w3.org/2000/svg">
<path d="M55.9201 14.199C56.3543 13.8518 57 14.1766 57 14.7253V37.625C57 40.5924 54.6064 43 51.6562 43H5.34375C2.39355 43 0 40.5924 0 37.625V14.7365C0 14.1766 0.63457 13.863 1.07988 14.2102C3.57363 16.1586 6.88008 18.6333 18.2355 26.931C20.5846 28.6555 24.5479 32.2836 28.5 32.2612C32.4744 32.2948 36.5156 28.5883 38.7756 26.931C50.1311 18.6333 53.4264 16.1474 55.9201 14.199ZM28.5 28.6667C31.0828 28.7115 34.8012 25.3969 36.6715 24.0307C51.4447 13.2471 52.5691 12.3065 55.9758 9.61901C56.6215 9.1151 57 8.33125 57 7.5026V5.375C57 2.40755 54.6064 0 51.6562 0H5.34375C2.39355 0 0 2.40755 0 5.375V7.5026C0 8.33125 0.378516 9.10391 1.02422 9.61901C4.43086 12.2953 5.55527 13.2471 20.3285 24.0307C22.1988 25.3969 25.9172 28.7115 28.5 28.6667Z" fill="white"/>
</svg>
