<svg width="262" height="93" viewBox="0 0 262 93" fill="none" xmlns="http://www.w3.org/2000/svg">
<path d="M4.05726 89.1191V88.5126L5.19357 88.422V86.5468H0.439188V86.0797L5.11689 78.969H6.03012V85.8496H7.61957V86.5468H6.03012V88.422L7.16643 88.5126V89.1191H4.05726ZM1.4291 85.8496H5.19357V80.1611L5.15175 80.1472L4.79621 80.8025L1.4291 85.8496ZM13.0842 89.1191V88.5126L14.2205 88.422V79.6731L13.0842 79.5825V78.969H20.5992V81.1928H19.8881L19.8184 79.6661H15.057V83.6537H19.191V84.3578H15.057V88.422L16.1934 88.5126V89.1191H13.0842ZM26.8485 89.2655C26.1514 89.2655 25.5356 89.1331 25.0011 88.8682C24.4713 88.5986 24.0553 88.2106 23.7532 87.704C23.4512 87.1928 23.3001 86.5746 23.3001 85.8496V79.6731L22.1638 79.5825V78.969H25.273V79.5825L24.1367 79.6731V85.8496C24.1367 86.4259 24.2505 86.9162 24.4783 87.3206C24.7106 87.7202 25.0313 88.027 25.4403 88.2408C25.8493 88.4499 26.321 88.5545 26.8554 88.5545C27.3899 88.5545 27.864 88.4499 28.2776 88.2408C28.6912 88.0316 29.0142 87.7272 29.2466 87.3275C29.479 86.9232 29.5951 86.4306 29.5951 85.8496V79.6731L28.4588 79.5825V78.969H31.568V79.5825L30.4317 79.6731V85.8496C30.4317 86.5886 30.2807 87.2113 29.9786 87.7179C29.6811 88.2245 29.2628 88.6102 28.7237 88.8751C28.1846 89.1354 27.5595 89.2655 26.8485 89.2655ZM35.5377 89.1191V88.5126L36.674 88.422V79.6522H33.8228L33.7322 81.1998H33.049V78.969H41.1286V81.1998H40.4524L40.3548 79.6522H37.5106V88.422L38.6469 88.5126V89.1191H35.5377ZM47.3361 89.2655C46.639 89.2655 46.0232 89.1331 45.4887 88.8682C44.9589 88.5986 44.543 88.2106 44.2409 87.704C43.9388 87.1928 43.7878 86.5746 43.7878 85.8496V79.6731L42.6514 79.5825V78.969H45.7606V79.5825L44.6243 79.6731V85.8496C44.6243 86.4259 44.7382 86.9162 44.9659 87.3206C45.1983 87.7202 45.5189 88.027 45.9279 88.2408C46.3369 88.4499 46.8086 88.5545 47.3431 88.5545C47.8775 88.5545 48.3516 88.4499 48.7652 88.2408C49.1788 88.0316 49.5018 87.7272 49.7342 87.3275C49.9666 86.9232 50.0828 86.4306 50.0828 85.8496V79.6731L48.9465 79.5825V78.969H52.0556V79.5825L50.9193 79.6731V85.8496C50.9193 86.5886 50.7683 87.2113 50.4662 87.7179C50.1688 88.2245 49.7505 88.6102 49.2114 88.8751C48.6723 89.1354 48.0472 89.2655 47.3361 89.2655ZM53.4599 89.1261V88.5126L54.5962 88.422V79.6731L53.4599 79.5825V78.976H57.7403C58.4653 78.976 59.0787 79.0829 59.5807 79.2967C60.0826 79.5104 60.4637 79.8218 60.724 80.2308C60.9889 80.6398 61.1213 81.144 61.1213 81.7436C61.1213 82.3245 60.9842 82.8148 60.71 83.2145C60.4405 83.6142 60.0594 83.9186 59.5667 84.1277C59.0787 84.3322 58.5048 84.4368 57.8448 84.4414L55.4328 84.4624V88.422L56.5691 88.5126V89.1261H53.4599ZM60.2848 89.1261L58.1028 84.0859L58.9393 84.0789L60.8773 88.4499L61.7069 88.5057V89.1261H60.2848ZM55.4328 83.7652H57.6566C58.5629 83.7652 59.2275 83.5793 59.6504 83.2075C60.0733 82.8357 60.2848 82.3454 60.2848 81.7366C60.2848 81.0813 60.0733 80.5747 59.6504 80.2169C59.2275 79.8544 58.5908 79.6731 57.7403 79.6731H55.4328V83.7652ZM63.4667 89.1191V88.5126L64.603 88.422V79.6731L63.4667 79.5825V78.969H70.7586V81.1928H70.0476L69.9779 79.6592H65.4396V83.5003H69.5317V84.1974H65.4396V88.4429H70.194L70.2637 86.8953H70.9678V89.1191H63.4667ZM76.7879 89.1191V88.5126L77.9242 88.422V79.6731L76.7879 79.5825V78.969H77.9242H78.7608H79.8971V79.5825L78.7608 79.6731V88.429H83.0202L83.0969 86.7907H83.7801V89.1191H76.7879ZM85.4702 89.1191V88.5126L86.6065 88.422V79.6731L85.4702 79.5825V78.969H92.7621V81.1928H92.051L91.9813 79.6592H87.4431V83.5003H91.5352V84.1974H87.4431V88.4429H92.1974L92.2671 86.8953H92.9712V89.1191H85.4702ZM94.7799 89.1191V88.5126L95.5258 88.4638L99.1299 78.969H99.9246L103.501 88.4638L104.247 88.5126V89.1191H101.744V88.5126L102.636 88.4499L101.793 86.1564H97.2407L96.3902 88.4499L97.2825 88.5126V89.1191H94.7799ZM97.5126 85.4244H101.521L99.6876 80.4399L99.5482 80.0286H99.5064L99.36 80.4399L97.5126 85.4244ZM105.763 89.1191V88.5126L106.899 88.422V79.6731L105.763 79.5825V78.969H106.899H109.687C110.552 78.969 111.312 79.1851 111.967 79.6173C112.622 80.0449 113.136 80.6351 113.508 81.388C113.884 82.1363 114.072 82.9937 114.072 83.9604V84.1277C114.072 85.0898 113.889 85.9472 113.522 86.7001C113.154 87.4484 112.643 88.0386 111.988 88.4708C111.337 88.903 110.582 89.1191 109.722 89.1191H105.763ZM107.735 88.422H109.687C110.394 88.422 111.012 88.2338 111.542 87.8573C112.072 87.4763 112.485 86.9627 112.783 86.3167C113.085 85.6661 113.236 84.9364 113.236 84.1277V83.9465C113.236 83.1285 113.085 82.3989 112.783 81.7575C112.485 81.1115 112.072 80.6026 111.542 80.2308C111.012 79.859 110.394 79.6731 109.687 79.6731H107.735V88.422ZM115.755 89.1191V88.5126L116.892 88.422V79.6731L115.755 79.5825V78.969H123.047V81.1928H122.336L122.267 79.6592H117.728V83.5003H121.82V84.1974H117.728V88.4429H122.483L122.552 86.8953H123.257V89.1191H115.755ZM125.163 89.1261V88.5126L126.299 88.422V79.6731L125.163 79.5825V78.976H129.443C130.168 78.976 130.782 79.0829 131.284 79.2967C131.785 79.5104 132.167 79.8218 132.427 80.2308C132.692 80.6398 132.824 81.144 132.824 81.7436C132.824 82.3245 132.687 82.8148 132.413 83.2145C132.143 83.6142 131.762 83.9186 131.27 84.1277C130.782 84.3322 130.208 84.4368 129.548 84.4414L127.136 84.4624V88.422L128.272 88.5126V89.1261H125.163ZM131.988 89.1261L129.806 84.0859L130.642 84.0789L132.58 88.4499L133.41 88.5057V89.1261H131.988ZM127.136 83.7652H129.359C130.266 83.7652 130.93 83.5793 131.353 83.2075C131.776 82.8357 131.988 82.3454 131.988 81.7366C131.988 81.0813 131.776 80.5747 131.353 80.2169C130.93 79.8544 130.294 79.6731 129.443 79.6731H127.136V83.7652ZM138.802 89.2655C138.221 89.2655 137.64 89.1772 137.059 89.0006C136.482 88.824 135.925 88.5498 135.386 88.178V86.2121H136.083L136.187 87.7946C136.596 88.0502 137.022 88.2408 137.463 88.3662C137.905 88.4917 138.351 88.5545 138.802 88.5545C139.336 88.5545 139.801 88.4731 140.196 88.3105C140.596 88.1432 140.905 87.9131 141.123 87.6203C141.346 87.3229 141.458 86.9813 141.458 86.5956C141.458 86.2238 141.367 85.8984 141.186 85.6196C141.009 85.3361 140.719 85.0874 140.314 84.8737C139.915 84.6599 139.371 84.4647 138.683 84.2881C137.944 84.0975 137.34 83.8744 136.871 83.6188C136.406 83.3632 136.062 83.0565 135.839 82.6986C135.62 82.3361 135.511 81.9062 135.511 81.4089C135.511 80.9024 135.646 80.4562 135.915 80.0705C136.185 79.6801 136.561 79.3757 137.045 79.1572C137.533 78.9342 138.1 78.8226 138.746 78.8226C139.429 78.8226 140.038 78.9249 140.572 79.1294C141.111 79.3338 141.567 79.5964 141.939 79.9171V81.7296H141.248L141.144 80.2936C140.851 80.0565 140.505 79.8706 140.105 79.7359C139.706 79.6011 139.252 79.5337 138.746 79.5337C138.249 79.5337 137.821 79.6173 137.463 79.7847C137.105 79.9473 136.829 80.1681 136.634 80.4469C136.443 80.7258 136.348 81.0418 136.348 81.395C136.348 81.7343 136.424 82.034 136.578 82.2943C136.731 82.5499 136.996 82.7776 137.372 82.9775C137.749 83.1727 138.276 83.3609 138.955 83.5421C140.056 83.8256 140.888 84.2091 141.451 84.6924C142.013 85.1711 142.294 85.8008 142.294 86.5816C142.294 87.1207 142.145 87.5924 141.848 87.9968C141.555 88.3965 141.146 88.7078 140.621 88.9309C140.096 89.154 139.489 89.2655 138.802 89.2655ZM152.255 89.2655C151.614 89.2655 151.033 89.1424 150.512 88.8961C149.992 88.6497 149.546 88.2989 149.174 87.8434C148.802 87.3879 148.516 86.8465 148.316 86.2191C148.117 85.587 148.017 84.8853 148.017 84.1138V83.9813C148.017 83.2099 148.114 82.5104 148.31 81.883C148.509 81.2509 148.795 80.7072 149.167 80.2517C149.539 79.7916 149.985 79.4384 150.505 79.1921C151.026 78.9458 151.607 78.8226 152.248 78.8226C152.904 78.8226 153.491 78.9458 154.012 79.1921C154.537 79.4384 154.983 79.7916 155.35 80.2517C155.722 80.7072 156.003 81.2509 156.194 81.883C156.389 82.5104 156.487 83.2099 156.487 83.9813V84.1138C156.487 84.8853 156.389 85.587 156.194 86.2191C156.003 86.8465 155.725 87.3879 155.357 87.8434C154.99 88.2989 154.544 88.6497 154.019 88.8961C153.498 89.1424 152.911 89.2655 152.255 89.2655ZM152.255 88.5336C152.99 88.5336 153.608 88.35 154.11 87.9828C154.616 87.6157 155 87.0998 155.26 86.4352C155.52 85.7706 155.65 84.9968 155.65 84.1138V83.9674C155.65 83.0844 155.518 82.3129 155.253 81.6529C154.993 80.993 154.609 80.4795 154.103 80.1123C153.596 79.7405 152.978 79.5546 152.248 79.5546C151.546 79.5546 150.942 79.7405 150.436 80.1123C149.929 80.4795 149.539 80.9953 149.265 81.6599C148.995 82.3199 148.86 83.089 148.86 83.9674V84.1138C148.86 84.9968 148.995 85.7706 149.265 86.4352C149.539 87.0998 149.929 87.6157 150.436 87.9828C150.947 88.35 151.553 88.5336 152.255 88.5336ZM158.205 89.1191V88.5126L159.341 88.422V79.6731L158.205 79.5825V78.969H165.72V81.1928H165.009L164.939 79.6661H160.178V83.6537H164.312V84.3578H160.178V88.422L161.314 88.5126V89.1191H158.205ZM173.84 89.1191V88.5126L174.977 88.422V79.6522H172.125L172.035 81.1998H171.352V78.969H179.431V81.1998H178.755L178.658 79.6522H175.813V88.422L176.95 88.5126V89.1191H173.84ZM185.255 89.2655C184.614 89.2655 184.033 89.1424 183.513 88.8961C182.992 88.6497 182.546 88.2989 182.174 87.8434C181.802 87.3879 181.517 86.8465 181.317 86.2191C181.117 85.587 181.017 84.8853 181.017 84.1138V83.9813C181.017 83.2099 181.114 82.5104 181.31 81.883C181.51 81.2509 181.795 80.7072 182.167 80.2517C182.539 79.7916 182.985 79.4384 183.506 79.1921C184.026 78.9458 184.607 78.8226 185.248 78.8226C185.904 78.8226 186.492 78.9458 187.012 79.1921C187.537 79.4384 187.983 79.7916 188.351 80.2517C188.722 80.7072 189.004 81.2509 189.194 81.883C189.389 82.5104 189.487 83.2099 189.487 83.9813V84.1138C189.487 84.8853 189.389 85.587 189.194 86.2191C189.004 86.8465 188.725 87.3879 188.358 87.8434C187.99 88.2989 187.544 88.6497 187.019 88.8961C186.499 89.1424 185.911 89.2655 185.255 89.2655ZM185.255 88.5336C185.99 88.5336 186.608 88.35 187.11 87.9828C187.616 87.6157 188 87.0998 188.26 86.4352C188.52 85.7706 188.65 84.9968 188.65 84.1138V83.9674C188.65 83.0844 188.518 82.3129 188.253 81.6529C187.993 80.993 187.609 80.4795 187.103 80.1123C186.596 79.7405 185.978 79.5546 185.248 79.5546C184.547 79.5546 183.942 79.7405 183.436 80.1123C182.929 80.4795 182.539 80.9953 182.265 81.6599C181.995 82.3199 181.86 83.089 181.86 83.9674V84.1138C181.86 84.9968 181.995 85.7706 182.265 86.4352C182.539 87.0998 182.929 87.6157 183.436 87.9828C183.947 88.35 184.554 88.5336 185.255 88.5336ZM191.247 89.1191V88.5126L192.383 88.422V79.6731L191.247 79.5825V78.969H192.383H193.512L197.263 87.6691H197.305L201.007 78.969H203.328V79.5825L202.192 79.6731V88.422L203.328 88.5126V89.1191H200.219V88.5126L201.383 88.422V84.0929V80.189L201.348 80.182L197.584 88.9518H196.998L193.192 80.2099L193.15 80.2238L193.178 83.9953V88.422L194.356 88.5126V89.1191H191.247ZM209.284 89.2655C208.643 89.2655 208.062 89.1424 207.542 88.8961C207.021 88.6497 206.575 88.2989 206.203 87.8434C205.831 87.3879 205.546 86.8465 205.346 86.2191C205.146 85.587 205.046 84.8853 205.046 84.1138V83.9813C205.046 83.2099 205.144 82.5104 205.339 81.883C205.539 81.2509 205.824 80.7072 206.196 80.2517C206.568 79.7916 207.014 79.4384 207.535 79.1921C208.055 78.9458 208.636 78.8226 209.277 78.8226C209.933 78.8226 210.521 78.9458 211.041 79.1921C211.566 79.4384 212.013 79.7916 212.38 80.2517C212.751 80.7072 213.033 81.2509 213.223 81.883C213.418 82.5104 213.516 83.2099 213.516 83.9813V84.1138C213.516 84.8853 213.418 85.587 213.223 86.2191C213.033 86.8465 212.754 87.3879 212.387 87.8434C212.019 88.2989 211.573 88.6497 211.048 88.8961C210.528 89.1424 209.94 89.2655 209.284 89.2655ZM209.284 88.5336C210.019 88.5336 210.637 88.35 211.139 87.9828C211.645 87.6157 212.029 87.0998 212.289 86.4352C212.549 85.7706 212.679 84.9968 212.679 84.1138V83.9674C212.679 83.0844 212.547 82.3129 212.282 81.6529C212.022 80.993 211.638 80.4795 211.132 80.1123C210.625 79.7405 210.007 79.5546 209.277 79.5546C208.576 79.5546 207.972 79.7405 207.465 80.1123C206.958 80.4795 206.568 80.9953 206.294 81.6599C206.024 82.3199 205.889 83.089 205.889 83.9674V84.1138C205.889 84.9968 206.024 85.7706 206.294 86.4352C206.568 87.0998 206.958 87.6157 207.465 87.9828C207.976 88.35 208.583 88.5336 209.284 88.5336ZM215.234 89.1261V88.5126L216.37 88.422V79.6731L215.234 79.5825V78.976H219.514C220.239 78.976 220.853 79.0829 221.355 79.2967C221.857 79.5104 222.238 79.8218 222.498 80.2308C222.763 80.6398 222.895 81.144 222.895 81.7436C222.895 82.3245 222.758 82.8148 222.484 83.2145C222.215 83.6142 221.833 83.9186 221.341 84.1277C220.853 84.3322 220.279 84.4368 219.619 84.4414L217.207 84.4624V88.422L218.343 88.5126V89.1261H215.234ZM222.059 89.1261L219.877 84.0859L220.713 84.0789L222.651 88.4499L223.481 88.5057V89.1261H222.059ZM217.207 83.7652H219.431C220.337 83.7652 221.002 83.5793 221.424 83.2075C221.847 82.8357 222.059 82.3454 222.059 81.7366C222.059 81.0813 221.847 80.5747 221.424 80.2169C221.002 79.8544 220.365 79.6731 219.514 79.6731H217.207V83.7652ZM225.241 89.1261V88.5126L226.377 88.422V79.6731L225.241 79.5825V78.976H229.521C230.246 78.976 230.86 79.0829 231.362 79.2967C231.863 79.5104 232.245 79.8218 232.505 80.2308C232.77 80.6398 232.902 81.144 232.902 81.7436C232.902 82.3245 232.765 82.8148 232.491 83.2145C232.221 83.6142 231.84 83.9186 231.348 84.1277C230.86 84.3322 230.286 84.4368 229.626 84.4414L227.214 84.4624V88.422L228.35 88.5126V89.1261H225.241ZM232.066 89.1261L229.884 84.0859L230.72 84.0789L232.658 88.4499L233.488 88.5057V89.1261H232.066ZM227.214 83.7652H229.437C230.344 83.7652 231.008 83.5793 231.431 83.2075C231.854 82.8357 232.066 82.3454 232.066 81.7366C232.066 81.0813 231.854 80.5747 231.431 80.2169C231.008 79.8544 230.372 79.6731 229.521 79.6731H227.214V83.7652ZM239.667 89.2655C239.026 89.2655 238.445 89.1424 237.925 88.8961C237.404 88.6497 236.958 88.2989 236.586 87.8434C236.214 87.3879 235.928 86.8465 235.729 86.2191C235.529 85.587 235.429 84.8853 235.429 84.1138V83.9813C235.429 83.2099 235.526 82.5104 235.722 81.883C235.921 81.2509 236.207 80.7072 236.579 80.2517C236.951 79.7916 237.397 79.4384 237.918 79.1921C238.438 78.9458 239.019 78.8226 239.66 78.8226C240.316 78.8226 240.904 78.9458 241.424 79.1921C241.949 79.4384 242.395 79.7916 242.763 80.2517C243.134 80.7072 243.416 81.2509 243.606 81.883C243.801 82.5104 243.899 83.2099 243.899 83.9813V84.1138C243.899 84.8853 243.801 85.587 243.606 86.2191C243.416 86.8465 243.137 87.3879 242.77 87.8434C242.402 88.2989 241.956 88.6497 241.431 88.8961C240.911 89.1424 240.323 89.2655 239.667 89.2655ZM239.667 88.5336C240.402 88.5336 241.02 88.35 241.522 87.9828C242.028 87.6157 242.412 87.0998 242.672 86.4352C242.932 85.7706 243.062 84.9968 243.062 84.1138V83.9674C243.062 83.0844 242.93 82.3129 242.665 81.6529C242.405 80.993 242.021 80.4795 241.515 80.1123C241.008 79.7405 240.39 79.5546 239.66 79.5546C238.959 79.5546 238.354 79.7405 237.848 80.1123C237.341 80.4795 236.951 80.9953 236.677 81.6599C236.407 82.3199 236.272 83.089 236.272 83.9674V84.1138C236.272 84.9968 236.407 85.7706 236.677 86.4352C236.951 87.0998 237.341 87.6157 237.848 87.9828C238.359 88.35 238.966 88.5336 239.667 88.5336ZM248.621 89.1191L246.182 79.6313L245.408 79.5825V78.969H248.127V79.5825L247.039 79.6522L248.663 86.254L249.04 87.7179H249.082L249.507 86.2609L251.814 78.969H252.595L254.91 86.2609L255.321 87.7528H255.363L255.774 86.2609L257.377 79.6522L256.255 79.5825V78.969H258.946V79.5825L258.2 79.6313L255.809 89.1191H254.979L252.532 81.3183L252.219 80.3005H252.177L251.877 81.3183L249.416 89.1191H248.621Z" fill="white"/>
<path d="M29.9479 44.4058L29.3431 46.1622L28.4195 44.5505C27.7499 43.3819 26.4845 41.6359 24.8995 40.2431C23.2957 38.8336 21.5078 37.9086 19.76 38.0751C17.43 38.297 15.888 39.5291 15.2058 41.1996C14.5134 42.895 14.6556 45.1762 16.0081 47.5334C17.4334 50.0176 19.6058 53.0919 21.8311 55.7798C24.0807 58.4972 26.2934 60.7075 27.7924 61.571L28.9616 62.2445L27.8435 62.9999C27.3016 63.3661 26.49 63.9095 25.0392 64.349C23.606 64.7832 21.5829 65.1068 18.6 65.1068C10.9003 65.1068 4.96023 59.7277 2.63633 55.455C1.84957 54.0085 1.26991 51.8525 1.02355 49.5492C0.776165 47.2363 0.855211 44.6867 1.45407 42.4379L1.46014 42.4151L1.46748 42.3927L8.07874 22.1859L8.10136 22.1168L8.13548 22.0526C8.42652 21.5048 9.0004 20.7635 9.82464 20.2647C10.6814 19.7462 11.8169 19.4915 13.0977 20.0038C14.3483 20.5041 15.0066 21.3927 15.276 22.3131C15.3198 22.463 15.3532 22.6127 15.3774 22.7606L17.142 17.8433L17.1491 17.8234L17.1573 17.8038C17.4112 17.1943 17.9495 16.3544 18.7851 15.7801C19.6628 15.1768 20.8487 14.8879 22.2321 15.4329C23.6134 15.9771 24.2813 16.9887 24.5044 18.0255C24.7158 19.0081 24.5257 19.9789 24.2884 20.5906C24.2881 20.5916 24.2877 20.5926 24.2873 20.5936L23.3974 22.9314C23.4023 22.9299 23.4072 22.9285 23.4121 22.9272C23.6632 22.8572 23.8888 22.8922 24.0428 22.9328C24.2989 23.0002 24.6017 23.1565 24.8901 23.3054C24.9008 23.3109 24.9115 23.3165 24.9221 23.322C24.9523 23.3375 24.9833 23.3536 25.0153 23.3701C25.3409 23.5384 25.7588 23.7544 26.3201 24.0203C27.9551 24.7947 28.5383 26.3383 28.6598 27.6781C28.7771 28.973 28.4897 30.2794 28.129 30.9685C28.1765 30.9797 28.2232 30.9948 28.2688 31.0136C28.4399 31.0844 28.5516 31.1909 28.6092 31.2526C28.6697 31.3176 28.7149 31.382 28.7426 31.4233C28.7756 31.4726 28.821 31.5475 28.8553 31.6041C28.8682 31.6255 28.8796 31.6443 28.8882 31.6581C29.0436 31.9094 29.3504 32.3677 30.1964 32.8471C31.3203 33.4839 32.0334 34.2775 32.365 35.1473C32.691 36.0021 32.6172 36.8519 32.31 37.5468L29.9479 44.4058ZM11.4068 35.4542C11.4068 35.4543 11.4067 35.4533 11.4063 35.4515C11.4065 35.4533 11.4067 35.4542 11.4068 35.4542ZM19.3693 33.6214C19.3693 33.6214 19.3693 33.6203 19.369 33.6183L19.3693 33.6214ZM18.6723 33.3245C18.6724 33.3244 18.6725 33.3243 18.6726 33.3243L18.6709 33.3256C18.671 33.3256 18.6714 33.3252 18.6723 33.3245Z" fill="#A0C7EF" stroke="#0370BB" stroke-width="1.68597"/>
<path d="M28.9233 44.9029L29.6098 46.3786L30.4191 44.9664C31.0973 43.7828 32.3373 41.9824 33.8929 40.5393C35.4701 39.0763 37.2213 38.1171 38.9527 38.282C41.2827 38.5039 42.8247 39.736 43.5069 41.4066C44.1993 43.1019 44.0571 45.3831 42.7046 47.7403C41.2824 50.2191 39.1723 53.1297 36.9956 55.7035C34.8072 58.2913 32.6104 60.4683 31.0258 61.532L29.9865 62.2296L31.0236 62.9304C31.0555 62.952 31.0883 62.9742 31.1219 62.9971C31.6372 63.3474 32.3671 63.8436 33.6635 64.2436C35.0227 64.6629 36.9689 64.968 39.9465 64.968C43.7836 64.968 47.4884 63.6932 50.47 61.8799C53.436 60.0762 55.7813 57.6804 56.8082 55.3452C58.5676 51.3444 58.869 46.4966 57.7839 42.9298L57.7791 42.9138L57.7736 42.898L50.6289 22.3778L50.6076 22.3167L50.5772 22.2595C50.2862 21.7117 49.7123 20.9704 48.8881 20.4716C48.0313 19.9531 46.8958 19.6984 45.615 20.2107C44.3644 20.711 43.7061 21.5996 43.4367 22.52C43.3929 22.6699 43.3595 22.8196 43.3353 22.9675L41.5707 18.0502L41.5636 18.0303L41.5554 18.0107C41.3015 17.4013 40.7632 16.5613 39.9276 15.987C39.0499 15.3837 37.864 15.0949 36.4806 15.6398C35.0994 16.184 34.4314 17.1957 34.2084 18.2324C34.1574 18.4692 34.1298 18.7053 34.1205 18.9359L33.5837 17.6044L33.571 17.5729L33.5558 17.5426C33.2426 16.9162 32.5942 16.0939 31.6176 15.5978C30.598 15.0799 29.2852 14.9534 27.7886 15.6623C26.2758 16.379 25.5822 17.5021 25.413 18.6503C25.2976 19.4337 25.4311 20.1856 25.6419 20.7801C25.4397 20.6568 25.2168 20.5475 24.9744 20.4611C24.0691 20.1384 22.9561 20.1594 21.7523 20.8416C20.4706 21.5678 19.9644 22.7081 19.8643 23.7791C19.7679 24.8115 20.04 25.7997 20.3219 26.4131L20.3219 26.4131L20.3236 26.4167L28.9233 44.9029ZM47.3059 35.6612C47.3059 35.6612 47.306 35.6602 47.3064 35.6584C47.3062 35.6602 47.306 35.6611 47.3059 35.6612ZM39.3434 33.8283C39.3434 33.8283 39.3434 33.8272 39.3437 33.8252L39.3434 33.8283Z" fill="#DFC5FF" stroke="#743EB6" stroke-width="1.68597"/>
<path d="M86.7277 63V57.8735L91.2976 56.9947V52.8057H73.8969L73.4868 48.6166L91.2097 20.3479H99.8222V47.1226H104.656V52.8057H99.8222V56.9947L104.363 57.8735V63H86.7277ZM81.4548 47.1226H91.2976V31.7433L91.1218 31.6847L90.4188 32.915L81.4548 47.1226ZM108.478 63V57.8735L113.019 56.9947V26.3824L108.478 25.5036V20.3479H142.43V32.0362H135.868L135.487 26.939H121.572V38.6859H136.512V45.2771H121.572V56.9947L126.142 57.8735V63H108.478ZM146.164 63V57.8735L150.705 56.9947V26.3824L146.164 25.5036V20.3479H150.705H159.259H164.414V25.5036L159.259 26.3824V56.4381H171.298L171.709 50.1985H178.241V63H146.164ZM200.694 63.6152C197.824 63.6152 195.207 63.0781 192.844 62.004C190.481 60.9299 188.44 59.4261 186.721 57.4927C185.022 55.5398 183.714 53.2548 182.796 50.6379C181.878 48.0015 181.419 45.1209 181.419 41.9962V41.3517C181.419 38.2465 181.878 35.3855 182.796 32.7686C183.714 30.1321 185.022 27.8374 186.721 25.8845C188.42 23.9315 190.451 22.418 192.814 21.3439C195.177 20.2698 197.794 19.7327 200.665 19.7327C203.555 19.7327 206.192 20.2698 208.575 21.3439C210.957 22.418 213.008 23.9315 214.726 25.8845C216.445 27.8374 217.763 30.1321 218.681 32.7686C219.618 35.3855 220.087 38.2465 220.087 41.3517V41.9962C220.087 45.1209 219.618 48.0015 218.681 50.6379C217.763 53.2548 216.445 55.5398 214.726 57.4927C213.008 59.4261 210.957 60.9299 208.575 62.004C206.211 63.0781 203.585 63.6152 200.694 63.6152ZM200.694 56.9654C203.116 56.9654 205.128 56.3405 206.729 55.0906C208.33 53.8407 209.531 52.0929 210.332 49.847C211.152 47.6011 211.563 44.9842 211.563 41.9962V41.2931C211.563 38.3442 211.152 35.7565 210.332 33.5302C209.512 31.2843 208.291 29.5364 206.67 28.2866C205.069 27.0367 203.067 26.4117 200.665 26.4117C198.283 26.4117 196.3 27.0367 194.718 28.2866C193.137 29.5169 191.945 31.2453 191.145 33.4716C190.363 35.698 189.973 38.3051 189.973 41.2931V41.9962C189.973 44.9842 190.363 47.6011 191.145 49.847C191.945 52.0929 193.137 53.8407 194.718 55.0906C196.32 56.3405 198.312 56.9654 200.694 56.9654ZM233.108 63V57.8735L237.678 56.9947V26.939H229.915L229.446 32.0362H222.972V20.3479H261.025V32.0362H254.522L254.053 26.939H246.231V56.9947L250.831 57.8735V63H233.108Z" fill="white"/>
</svg>
