<svg width="89" height="88" viewBox="0 0 89 88" fill="none" xmlns="http://www.w3.org/2000/svg">
<g id="Frame 137">
<path id="Vector" d="M59.17 23.0286C59.1696 25.2349 58.2971 27.3516 56.7427 28.9173C53.164 32.5253 49.6917 36.2873 45.9773 39.7633C45.5627 40.1411 45.0187 40.3452 44.4579 40.3336C43.897 40.322 43.3621 40.0955 42.9633 39.7009L32.264 28.9209C30.7087 27.3542 29.8359 25.2362 29.8359 23.0286C29.8359 20.821 30.7087 18.703 32.264 17.1363C33.0401 16.3545 33.9632 15.734 34.9801 15.3106C35.9971 14.8871 37.0878 14.6691 38.1893 14.6691C39.2909 14.6691 40.3816 14.8871 41.3986 15.3106C42.4155 15.734 43.3386 16.3545 44.1147 17.1363L44.5033 17.5286L44.892 17.1363C46.0569 15.9588 47.5458 15.1546 49.1693 14.826C50.7927 14.4974 52.4772 14.6594 54.0083 15.2913C55.5394 15.9231 56.8478 16.9963 57.767 18.3742C58.6862 19.752 59.1746 21.3723 59.17 23.0286Z" stroke="#F67659" stroke-width="5.5" stroke-linejoin="round"/>
<path id="Vector_2" d="M66.5 73.3343L80.5213 59.313C80.934 58.9008 81.1662 58.3416 81.1667 57.7583V38.501C81.1667 37.0423 80.5872 35.6433 79.5558 34.6119C78.5243 33.5804 77.1254 33.001 75.6667 33.001C74.208 33.001 72.809 33.5804 71.7776 34.6119C70.7461 35.6433 70.1667 37.0423 70.1667 38.501V55.001" stroke="#694C97" stroke-width="5.5" stroke-linecap="round" stroke-linejoin="round"/>
<path id="Vector_3" d="M66.5026 58.6676L69.6486 55.5216C69.8139 55.3566 69.945 55.1605 70.0343 54.9447C70.1237 54.7289 70.1695 54.4976 70.1693 54.264C70.1688 53.9343 70.0766 53.6112 69.9031 53.3308C69.7295 53.0504 69.4815 52.8238 69.1866 52.6763L67.5623 51.866C66.1861 51.1779 64.6284 50.9401 63.1097 51.1862C61.5909 51.4323 60.188 52.1499 59.0996 53.2373L55.8179 56.519C54.4426 57.8939 53.6697 59.7589 53.6693 61.7036V73.3343M22.5026 73.3343L8.48127 59.313C8.06857 58.9008 7.83645 58.3416 7.83594 57.7583V38.501C7.83594 37.0423 8.4154 35.6433 9.44685 34.6119C10.4783 33.5804 11.8772 33.001 13.3359 33.001C14.7946 33.001 16.1936 33.5804 17.225 34.6119C18.2565 35.6433 18.8359 37.0423 18.8359 38.501V55.001" stroke="#694C97" stroke-width="5.5" stroke-linecap="round" stroke-linejoin="round"/>
<path id="Vector_4" d="M22.5026 58.6706L19.3566 55.5246C19.1915 55.3594 19.0605 55.1633 18.9712 54.9476C18.8818 54.7318 18.8359 54.5005 18.8359 54.2669C18.8359 53.5959 19.2173 52.9836 19.8186 52.6793L21.4429 51.8689C22.8191 51.1809 24.3768 50.9431 25.8955 51.1892C27.4143 51.4353 28.8172 52.1528 29.9056 53.2403L33.1873 56.5219C34.5626 57.8969 35.3355 59.7618 35.3359 61.7066V73.3373" stroke="#694C97" stroke-width="5.5" stroke-linecap="round" stroke-linejoin="round"/>
</g>
</svg>
