<svg width="79" height="66" viewBox="0 0 79 66" fill="none" xmlns="http://www.w3.org/2000/svg">
<g id="Group">
<path id="Vector" d="M54.17 12.0286C54.1696 14.2349 53.2971 16.3516 51.7427 17.9173C48.164 21.5253 44.6917 25.2873 40.9773 28.7633C40.5627 29.1411 40.0187 29.3452 39.4579 29.3336C38.897 29.322 38.3621 29.0955 37.9633 28.7009L27.264 17.9209C25.7087 16.3542 24.8359 14.2362 24.8359 12.0286C24.8359 9.82103 25.7087 7.70297 27.264 6.13628C28.0401 5.35448 28.9632 4.73399 29.9801 4.31056C30.9971 3.88713 32.0878 3.66913 33.1893 3.66913C34.2909 3.66913 35.3816 3.88713 36.3986 4.31056C37.4155 4.73399 38.3386 5.35448 39.1147 6.13628L39.5033 6.52861L39.892 6.13628C41.0569 4.95878 42.5458 4.15456 44.1693 3.826C45.7927 3.49744 47.4772 3.65939 49.0083 4.29125C50.5394 4.92311 51.8478 5.99629 52.767 7.37416C53.6862 8.75203 54.1746 10.3723 54.17 12.0286Z" stroke="#F67659" stroke-width="5.5" stroke-linejoin="round"/>
<path id="Vector_2" d="M61.5 62.3343L75.5213 48.313C75.934 47.9008 76.1662 47.3416 76.1667 46.7583V27.501C76.1667 26.0423 75.5872 24.6433 74.5558 23.6119C73.5243 22.5804 72.1254 22.001 70.6667 22.001C69.208 22.001 67.809 22.5804 66.7776 23.6119C65.7461 24.6433 65.1667 26.0423 65.1667 27.501V44.001" stroke="#694C97" stroke-width="5.5" stroke-linecap="round" stroke-linejoin="round"/>
<path id="Vector_3" d="M61.5026 47.6676L64.6486 44.5216C64.8139 44.3566 64.945 44.1605 65.0343 43.9447C65.1237 43.7289 65.1695 43.4976 65.1693 43.264C65.1688 42.9343 65.0766 42.6112 64.9031 42.3308C64.7295 42.0504 64.4815 41.8238 64.1866 41.6763L62.5623 40.866C61.1861 40.1779 59.6284 39.9401 58.1097 40.1862C56.5909 40.4323 55.188 41.1499 54.0996 42.2373L50.8179 45.519C49.4426 46.8939 48.6697 48.7589 48.6693 50.7036V62.3343M17.5026 62.3343L3.48127 48.313C3.06857 47.9008 2.83645 47.3416 2.83594 46.7583V27.501C2.83594 26.0423 3.4154 24.6433 4.44685 23.6119C5.4783 22.5804 6.87725 22.001 8.33594 22.001C9.79463 22.001 11.1936 22.5804 12.225 23.6119C13.2565 24.6433 13.8359 26.0423 13.8359 27.501V44.001" stroke="#694C97" stroke-width="5.5" stroke-linecap="round" stroke-linejoin="round"/>
<path id="Vector_4" d="M17.5026 47.6706L14.3566 44.5246C14.1915 44.3594 14.0605 44.1633 13.9712 43.9476C13.8818 43.7318 13.8359 43.5005 13.8359 43.2669C13.8359 42.5959 14.2173 41.9836 14.8186 41.6793L16.4429 40.8689C17.8191 40.1809 19.3768 39.9431 20.8955 40.1892C22.4143 40.4353 23.8172 41.1528 24.9056 42.2403L28.1873 45.5219C29.5626 46.8969 30.3355 48.7618 30.3359 50.7066V62.3373" stroke="#694C97" stroke-width="5.5" stroke-linecap="round" stroke-linejoin="round"/>
</g>
</svg>
