<svg width="95" height="95" viewBox="0 0 95 95" fill="none" xmlns="http://www.w3.org/2000/svg">
<path d="M85.7493 58.336C84.5175 57.8178 83.0858 57.5168 81.5835 57.5168C79.8956 57.5168 78.2967 57.8969 76.8674 58.576L76.934 58.5475L60.0209 66.1433C60.0284 66.007 60.0981 65.8881 60.0981 65.7506C60.0549 61.7383 56.7924 58.5023 52.7738 58.5023C52.573 58.5023 52.3741 58.5103 52.1773 58.5263L52.2032 58.5246H41.1298L27.1982 54.4428C27.0168 54.3847 26.808 54.3514 26.5915 54.3514H20.232V52.136C20.2317 50.9238 19.2491 49.9411 18.0368 49.9408H6.67181C5.45967 49.941 4.47693 50.9237 4.47656 52.136V87.8686C4.47693 89.0809 5.45957 90.0637 6.67181 90.0639H18.0368C19.2491 90.0636 20.2317 89.0809 20.232 87.8686V84.9282C25.5521 85.7594 30.3167 87.0987 34.8302 88.9286L34.393 88.7719C37.7603 89.989 41.6464 90.6927 45.6972 90.6927H45.7582H45.7552H45.806C50.5006 90.6927 54.9769 89.7579 59.0588 88.0644L58.8294 88.1488C62.468 86.5314 65.5566 84.8224 68.4789 82.8829L68.2392 83.0324C69.228 82.4207 70.2113 81.8089 71.2061 81.2202C75.9853 78.3904 79.827 75.9036 83.2914 73.3997C84.9849 72.1948 86.4628 71.0037 87.8666 69.7322L87.8249 69.7695C88.9161 68.8853 89.7875 67.7741 90.3742 66.5043L90.3975 66.4481C90.4871 66.2171 90.5393 65.9497 90.5393 65.6702C90.5393 65.5044 90.521 65.3428 90.4862 65.1873L90.4889 65.2019C90.0624 62.2264 88.2791 59.7412 85.7966 58.3602L85.7493 58.336ZM15.8415 85.6736H8.86705V54.3283H15.8415V85.6736ZM84.7374 66.6482C83.5309 67.7303 82.2191 68.7809 80.8502 69.7565L80.7128 69.8495C77.3684 72.2678 73.6353 74.6802 68.9648 77.4471C67.9472 78.0474 66.941 78.6705 65.9291 79.2936C63.4291 80.9712 60.553 82.5728 57.5458 83.9357L57.1654 84.09C53.7924 85.4763 49.877 86.2809 45.7738 86.2809C42.2518 86.2809 38.8683 85.6882 35.7177 84.5967L35.9334 84.6616C31.383 82.7646 26.0886 81.3093 20.5736 80.5446L20.2322 80.5059V58.7418H26.2664L40.198 62.8236C40.3795 62.8815 40.5882 62.9151 40.8048 62.9151H52.2034C54.7873 62.9151 55.7077 64.4413 55.7077 65.7506C55.7077 67.0599 54.7873 68.5861 52.2034 68.5861H32.2747C31.0622 68.5861 30.0795 69.5689 30.0795 70.7814C30.0795 71.9939 31.0622 72.9766 32.2747 72.9766H55.0623C55.3835 72.9766 55.6879 72.9049 55.9608 72.7767L55.948 72.7822L78.7635 62.5377C79.6063 62.1508 80.592 61.9252 81.6305 61.9252C82.406 61.9252 83.152 62.051 83.8495 62.2832L83.7999 62.269C84.9194 62.9414 85.7259 64.038 86.0011 65.331L86.0066 65.3618C85.6084 65.8259 85.1935 66.2463 84.7514 66.6359L84.7374 66.6482ZM48.7731 49.6694C49.1758 50.1159 49.7564 50.3954 50.4023 50.3954C51.0483 50.3954 51.6289 50.1159 52.0299 49.6713L52.0318 49.6693L69.5022 30.3036C72.6693 27.3555 74.6949 23.2175 74.8635 18.6057L74.8644 18.5755C74.8648 18.5409 74.8649 18.4999 74.8649 18.4589C74.8649 14.5611 73.2754 11.0346 70.7092 8.49227L70.7081 8.49135C68.0633 5.92081 64.4489 4.33594 60.4643 4.33594C56.5612 4.33594 53.0133 5.85669 50.3808 8.33805L50.3882 8.33119C47.8984 6.21397 44.6462 4.92618 41.0933 4.92618C39.8298 4.92618 38.6043 5.089 37.4367 5.39496L37.5368 5.37255C32.4034 6.83147 28.4424 10.7924 27.0097 15.8192L26.9837 15.926C26.7076 16.9907 26.5492 18.2132 26.5492 19.4725C26.5492 23.7324 28.3621 27.5687 31.2589 30.2521L31.2683 30.2608L48.7731 49.6694ZM31.2256 17.0636C32.2542 13.4405 35.0492 10.6447 38.5963 9.63315L38.6718 9.61486C39.4021 9.41015 40.2407 9.29225 41.1067 9.29179C44.1754 9.39122 46.9125 10.7346 48.8434 12.8314L48.8505 12.8391C49.2476 13.2365 49.7965 13.4823 50.4027 13.4823C51.009 13.4823 51.5576 13.2366 51.9547 12.8393C54.1278 10.4458 57.1938 8.89683 60.6226 8.72139L60.6528 8.7203H60.7271C66.1177 8.75505 70.474 13.133 70.474 18.5285V18.5425V18.5417C70.2975 22.0001 68.7498 25.0659 66.3683 27.2306L66.3581 27.2397L66.278 27.3227L50.4027 44.9218L34.4497 27.2397C32.2938 25.334 30.9412 22.5619 30.9412 19.4739C30.9412 18.6186 31.0449 17.7878 31.2403 16.9929L31.2256 17.0636Z" fill="#694C97"/>
<path d="M48.7708 49.6694C49.1735 50.1159 49.7541 50.3953 50.4 50.3953C51.046 50.3953 51.6266 50.1159 52.0276 49.6713L52.0294 49.6693L69.4999 30.3036C72.667 27.3555 74.6926 23.2175 74.8612 18.6057L74.8621 18.5755C74.8624 18.5409 74.8626 18.4999 74.8626 18.4589C74.8626 14.5611 73.2731 11.0346 70.7069 8.49227L70.7057 8.49135C68.061 5.92081 64.4466 4.33594 60.462 4.33594C56.5589 4.33594 53.011 5.85669 50.3785 8.33805L50.3859 8.33119C47.8961 6.21397 44.6439 4.92618 41.091 4.92618C39.8275 4.92618 38.602 5.089 37.4344 5.39496L37.5345 5.37255C32.401 6.83147 28.4401 10.7924 27.0074 15.8192L26.9814 15.926C26.7053 16.9907 26.5469 18.2132 26.5469 19.4725C26.5469 23.7324 28.3598 27.5687 31.2566 30.2521L31.266 30.2608L48.7708 49.6694ZM31.2233 17.0636C32.2519 13.4405 35.0469 10.6447 38.594 9.63315L38.6695 9.61486C39.3998 9.41015 40.2383 9.29225 41.1044 9.29179C44.1731 9.39122 46.9102 10.7346 48.8411 12.8314L48.8482 12.8391C49.2453 13.2365 49.7941 13.4823 50.4004 13.4823C51.0066 13.4823 51.5553 13.2366 51.9524 12.8393C54.1254 10.4458 57.1915 8.89683 60.6203 8.72139L60.6504 8.7203H60.7248C66.1154 8.75505 70.4717 13.133 70.4717 18.5285V18.5425V18.5417C70.2952 22.0001 68.7475 25.0659 66.366 27.2306L66.3558 27.2397L66.2757 27.3227L50.4004 44.9218L34.4474 27.2397C32.2915 25.334 30.9389 22.5619 30.9389 19.4739C30.9389 18.6186 31.0426 17.7877 31.238 16.9929L31.2233 17.0636Z" fill="#F67659"/>
</svg>
