<svg xmlns="http://www.w3.org/2000/svg" width="14" height="14" viewBox="0 0 14 14" fill="none">
<path d="M13.7233 11.9621C13.8994 12.1382 13.9984 12.3771 13.9984 12.6262C13.9984 12.8752 13.8994 13.1141 13.7233 13.2902C13.5472 13.4663 13.3083 13.5653 13.0592 13.5653C12.8102 13.5653 12.5713 13.4663 12.3952 13.2902L7.43503 8.32851L2.47331 13.2887C2.29719 13.4648 2.05832 13.5637 1.80924 13.5637C1.56017 13.5637 1.3213 13.4648 1.14518 13.2887C0.969061 13.1125 0.870117 12.8737 0.870117 12.6246C0.870117 12.3755 0.969061 12.1367 1.14518 11.9605L6.1069 7.00038L1.14674 2.03866C0.970623 1.86254 0.87168 1.62367 0.87168 1.3746C0.87168 1.12553 0.970623 0.886658 1.14674 0.710537C1.32286 0.534417 1.56173 0.435474 1.81081 0.435474C2.05988 0.435473 2.29875 0.534417 2.47487 0.710537L7.43503 5.67226L12.3967 0.709756C12.5729 0.533636 12.8117 0.434692 13.0608 0.434692C13.3099 0.434692 13.5487 0.533636 13.7249 0.709756C13.901 0.885876 13.9999 1.12475 13.9999 1.37382C13.9999 1.62289 13.901 1.86176 13.7249 2.03788L8.76315 7.00038L13.7233 11.9621Z" fill="black"/>
</svg>