<svg width="48" height="48" viewBox="0 0 48 48" fill="none" xmlns="http://www.w3.org/2000/svg">
<g id="ic_download">
<g id="Icon">
<path d="M10 32C11.1046 32 12 32.8954 12 34V36H36V34C36 32.8954 36.8954 32 38 32C39.1046 32 40 32.8954 40 34V38C40 39.1046 39.1046 40 38 40H10C8.89543 40 8 39.1046 8 38L8 34C8 32.8954 8.89543 32 10 32Z" fill="#694C97"/>
<path d="M25.4142 31.4142C24.6332 32.1953 23.3668 32.1953 22.5858 31.4142L12.5858 21.4142C11.8047 20.6332 11.8047 19.3669 12.5858 18.5858C13.3668 17.8048 14.6332 17.8048 15.4142 18.5858L22 25.1716L22 8C22 6.89543 22.8954 6 24 6C25.1046 6 26 6.89543 26 8L26 25.1716L32.5858 18.5858C33.3668 17.8048 34.6332 17.8048 35.4142 18.5858C36.1953 19.3669 36.1953 20.6332 35.4142 21.4142L25.4142 31.4142Z" fill="#694C97"/>
</g>
</g>
</svg>
