<svg width="31" height="25" viewBox="0 0 31 25" fill="none" xmlns="http://www.w3.org/2000/svg">
<path fill-rule="evenodd" clip-rule="evenodd" d="M9.29289 18.2071C8.90237 17.8166 8.90237 17.1834 9.29289 16.7929L13.5858 12.5L9.29289 8.20711C8.90237 7.81658 8.90237 7.18342 9.29289 6.79289C9.68342 6.40237 10.3166 6.40237 10.7071 6.79289L15.7071 11.7929C16.0976 12.1834 16.0976 12.8166 15.7071 13.2071L10.7071 18.2071C10.3166 18.5976 9.68342 18.5976 9.29289 18.2071Z" fill="#B4B4B4"/>
<path fill-rule="evenodd" clip-rule="evenodd" d="M16.2929 18.2071C15.9024 17.8166 15.9024 17.1834 16.2929 16.7929L20.5858 12.5L16.2929 8.20711C15.9024 7.81658 15.9024 7.18342 16.2929 6.79289C16.6834 6.40237 17.3166 6.40237 17.7071 6.79289L22.7071 11.7929C23.0976 12.1834 23.0976 12.8166 22.7071 13.2071L17.7071 18.2071C17.3166 18.5976 16.6834 18.5976 16.2929 18.2071Z" fill="#B4B4B4"/>
</svg>
