<svg width="16" height="17" viewBox="0 0 16 17" fill="none" xmlns="http://www.w3.org/2000/svg">
<g id="icon">
<path id="Line" d="M1 17C0.447715 17 0 16.5523 0 16C0 15.4477 0.447715 15 1 15H15C15.5523 15 16 15.4477 16 16C16 16.5523 15.5523 17 15 17H1Z" fill="white"/>
<path id="Fill 115" d="M10.9723 2.5326C10.8128 2.37455 10.5538 2.37455 10.394 2.5326L2.70319 10.1323L1.3145 12.9647C1.19174 13.3456 1.06108 13.5337 1.35516 13.8244C1.64924 14.1151 1.8395 13.986 2.22477 13.8646L5.08227 12.4843L12.7809 4.89201C12.9408 4.73436 12.9408 4.47836 12.7809 4.32031L10.9723 2.5326Z" fill="white"/>
<path id="Fill 117" d="M11.7108 1.20306C11.5743 1.33808 11.5743 1.5574 11.7108 1.69242L13.6028 3.56247C13.7394 3.69789 13.9612 3.69789 14.0978 3.56247L14.44 3.24859C14.9551 2.73893 14.9551 1.91318 14.44 1.40352L13.9189 0.888787C13.4038 0.379519 12.5681 0.379519 12.053 0.888787L11.7108 1.20306Z" fill="white"/>
</g>
</svg>
