<svg width="42" height="43" viewBox="0 0 42 43" fill="none" xmlns="http://www.w3.org/2000/svg">
<path d="M23.1589 0.85317C24.6912 0.847289 26.2236 0.86269 27.7555 0.899367L28.1629 0.914067C28.6333 0.930866 29.0974 0.951865 29.658 0.977063C31.8923 1.08206 33.4168 1.43484 34.7545 1.95352C36.1404 2.48689 37.308 3.20925 38.4755 4.37679C39.543 5.42591 40.3692 6.69497 40.8967 8.09571C41.4153 9.43334 41.7681 10.96 41.8731 13.1943C41.8983 13.7528 41.9193 14.219 41.9361 14.6894L41.9487 15.0968C41.986 16.628 42.0021 18.1597 41.997 19.6913L41.9991 21.2579V24.0087C42.0043 25.5411 41.9882 27.0735 41.9508 28.6054L41.9382 29.0128C41.9214 29.4831 41.9004 29.9472 41.8752 30.5079C41.7702 32.7422 41.4132 34.2667 40.8967 35.6043C40.371 37.0066 39.5445 38.2767 38.4755 39.3253C37.4255 40.3928 36.1558 41.2189 34.7545 41.7465C33.4168 42.2652 31.8923 42.618 29.658 42.723C29.0974 42.7482 28.6333 42.7692 28.1629 42.786L27.7555 42.7986C26.2236 42.8359 24.6912 42.852 23.1589 42.8469L21.5923 42.849H18.8436C17.3112 42.8541 15.7788 42.838 14.2469 42.8007L13.8395 42.7881C13.341 42.77 12.8426 42.749 12.3444 42.7251C10.1101 42.6201 8.58558 42.2631 7.24585 41.7465C5.84456 41.2202 4.57528 40.3938 3.52694 39.3253C2.45818 38.276 1.6312 37.0061 1.10366 35.6043C0.584983 34.2667 0.2322 32.7422 0.127205 30.5079C0.103819 30.0096 0.0828194 29.5112 0.0642084 29.0128L0.0537092 28.6054C0.0149947 27.0735 -0.00250632 25.5411 0.00121164 24.0087V19.6913C-0.0046491 18.1597 0.0107518 16.628 0.0474095 15.0968L0.0621087 14.6894C0.0789079 14.219 0.0999067 13.7528 0.125105 13.1943C0.2301 10.9579 0.582882 9.43544 1.10156 8.09571C1.62941 6.69428 2.45801 5.42558 3.52904 4.37889C4.57666 3.30953 5.84514 2.48179 7.24585 1.95352C8.58558 1.43484 10.108 1.08206 12.3444 0.977063L13.8395 0.914067L14.2469 0.903567C15.7781 0.864872 17.3098 0.847371 18.8415 0.85107L23.1589 0.85317ZM21.0002 11.3526C19.609 11.333 18.2278 11.59 16.9368 12.1087C15.6458 12.6275 14.4708 13.3977 13.4801 14.3745C12.4894 15.3513 11.7027 16.5153 11.1657 17.7988C10.6287 19.0823 10.3522 20.4598 10.3522 21.8511C10.3522 23.2424 10.6287 24.6198 11.1657 25.9033C11.7027 27.1868 12.4894 28.3508 13.4801 29.3276C14.4708 30.3045 15.6458 31.0746 16.9368 31.5934C18.2278 32.1122 19.609 32.3692 21.0002 32.3495C23.7848 32.3495 26.4554 31.2433 28.4244 29.2743C30.3934 27.3052 31.4996 24.6347 31.4996 21.85C31.4996 19.0654 30.3934 16.3948 28.4244 14.4258C26.4554 12.4567 23.7848 11.3526 21.0002 11.3526ZM21.0002 15.5524C21.837 15.537 22.6685 15.6885 23.4461 15.998C24.2237 16.3076 24.9319 16.769 25.5292 17.3553C26.1265 17.9416 26.601 18.641 26.9249 19.4128C27.2488 20.1845 27.4158 21.013 27.4159 21.85C27.416 22.687 27.2494 23.5156 26.9257 24.2874C26.602 25.0592 26.1278 25.7588 25.5307 26.3453C24.9336 26.9318 24.2256 27.3935 23.4481 27.7033C22.6705 28.0131 21.8391 28.1648 21.0023 28.1497C19.3315 28.1497 17.7291 27.486 16.5477 26.3046C15.3663 25.1232 14.7026 23.5208 14.7026 21.85C14.7026 20.1792 15.3663 18.5769 16.5477 17.3955C17.7291 16.214 19.3315 15.5503 21.0023 15.5503L21.0002 15.5524ZM32.0246 8.2028C31.3472 8.22992 30.7065 8.5181 30.2368 9.007C29.7671 9.4959 29.5047 10.1476 29.5047 10.8256C29.5047 11.5036 29.7671 12.1552 30.2368 12.6441C30.7065 13.133 31.3472 13.4212 32.0246 13.4483C32.7208 13.4483 33.3884 13.1718 33.8807 12.6795C34.3729 12.1873 34.6495 11.5196 34.6495 10.8235C34.6495 10.1273 34.3729 9.45967 33.8807 8.96741C33.3884 8.47515 32.7208 8.1986 32.0246 8.1986V8.2028Z" fill="white"/>
</svg>
