<svg width="42" height="42" viewBox="0 0 42 42" fill="none" xmlns="http://www.w3.org/2000/svg">
<path id="Vector" d="M23.1589 0.0025837C24.6912 -0.00329647 26.2236 0.0121044 27.7555 0.0487815L28.1629 0.0634807C28.6333 0.0802799 29.0974 0.101279 29.658 0.126478C31.8923 0.231472 33.4168 0.584255 34.7545 1.10293C36.1404 1.6363 37.308 2.35867 38.4755 3.52621C39.543 4.57533 40.3692 5.84438 40.8967 7.24512C41.4153 8.58276 41.7681 10.1094 41.8731 12.3437C41.8983 12.9022 41.9193 13.3684 41.9361 13.8388L41.9487 14.2462C41.986 15.7774 42.0021 17.3091 41.997 18.8407L41.9991 20.4073V23.1581C42.0043 24.6905 41.9882 26.2229 41.9508 27.7548L41.9382 28.1622C41.9214 28.6326 41.9004 29.0966 41.8752 29.6573C41.7702 31.8916 41.4132 33.4161 40.8967 34.7537C40.371 36.156 39.5445 37.4261 38.4755 38.4748C37.4255 39.5422 36.1558 40.3683 34.7545 40.8959C33.4168 41.4146 31.8923 41.7674 29.658 41.8724C29.0974 41.8976 28.6333 41.9186 28.1629 41.9354L27.7555 41.948C26.2236 41.9853 24.6912 42.0014 23.1589 41.9963L21.5923 41.9984H18.8436C17.3112 42.0036 15.7788 41.9875 14.2469 41.9501L13.8395 41.9375C13.341 41.9194 12.8426 41.8984 12.3444 41.8745C10.1101 41.7695 8.58558 41.4125 7.24585 40.8959C5.84456 40.3696 4.57528 39.5432 3.52694 38.4748C2.45818 37.4254 1.6312 36.1556 1.10366 34.7537C0.584983 33.4161 0.2322 31.8916 0.127205 29.6573C0.103819 29.159 0.0828194 28.6607 0.0642084 28.1622L0.0537092 27.7548C0.0149947 26.2229 -0.00250632 24.6905 0.00121164 23.1581V18.8407C-0.0046491 17.3091 0.0107518 15.7774 0.0474095 14.2462L0.0621087 13.8388C0.0789079 13.3684 0.0999067 12.9022 0.125105 12.3437C0.2301 10.1073 0.582882 8.58485 1.10156 7.24512C1.62941 5.84369 2.45801 4.57499 3.52904 3.52831C4.57666 2.45894 5.84514 1.63121 7.24585 1.10293C8.58558 0.584255 10.108 0.231472 12.3444 0.126478L13.8395 0.0634807L14.2469 0.0529815C15.7781 0.0142864 17.3098 -0.00321463 18.8415 0.000483958L23.1589 0.0025837ZM21.0002 10.5021C19.609 10.4824 18.2278 10.7394 16.9368 11.2582C15.6458 11.7769 14.4708 12.5471 13.4801 13.5239C12.4894 14.5007 11.7027 15.6647 11.1657 16.9482C10.6287 18.2317 10.3522 19.6092 10.3522 21.0005C10.3522 22.3918 10.6287 23.7692 11.1657 25.0527C11.7027 26.3362 12.4894 27.5002 13.4801 28.477C14.4708 29.4539 15.6458 30.224 16.9368 30.7428C18.2278 31.2616 19.609 31.5186 21.0002 31.4989C23.7848 31.4989 26.4554 30.3927 28.4244 28.4237C30.3934 26.4547 31.4996 23.7841 31.4996 20.9994C31.4996 18.2148 30.3934 15.5442 28.4244 13.5752C26.4554 11.6061 23.7848 10.5021 21.0002 10.5021ZM21.0002 14.7018C21.837 14.6864 22.6685 14.8379 23.4461 15.1475C24.2237 15.457 24.9319 15.9184 25.5292 16.5047C26.1265 17.091 26.601 17.7904 26.9249 18.5622C27.2488 19.3339 27.4158 20.1624 27.4159 20.9994C27.416 21.8364 27.2494 22.665 26.9257 23.4368C26.602 24.2087 26.1278 24.9083 25.5307 25.4948C24.9336 26.0813 24.2256 26.5429 23.4481 26.8527C22.6705 27.1625 21.8391 27.3143 21.0023 27.2991C19.3315 27.2991 17.7291 26.6354 16.5477 25.454C15.3663 24.2726 14.7026 22.6702 14.7026 20.9994C14.7026 19.3287 15.3663 17.7263 16.5477 16.5449C17.7291 15.3635 19.3315 14.6997 21.0023 14.6997L21.0002 14.7018ZM32.0246 7.35222C31.3472 7.37933 30.7065 7.66752 30.2368 8.15642C29.7671 8.64532 29.5047 9.297 29.5047 9.97499C29.5047 10.653 29.7671 11.3047 30.2368 11.7936C30.7065 12.2825 31.3472 12.5706 32.0246 12.5978C32.7208 12.5978 33.3884 12.3212 33.8807 11.8289C34.3729 11.3367 34.6495 10.669 34.6495 9.97289C34.6495 9.27673 34.3729 8.60908 33.8807 8.11682C33.3884 7.62456 32.7208 7.34802 32.0246 7.34802V7.35222Z" fill="white"/>
</svg>
