<svg width="34" height="45" viewBox="0 0 34 45" fill="none" xmlns="http://www.w3.org/2000/svg">
<g clip-path="url(#clip0_343_1284)">
<path d="M15.2529 44.0921C2.38797 25.5789 0 23.6789 0 16.875C0 7.55517 7.61113 0 17 0C26.3889 0 34 7.55517 34 16.875C34 23.6789 31.612 25.5789 18.7471 44.0921C17.9029 45.3027 16.0971 45.3026 15.2529 44.0921ZM17 23.9062C20.912 23.9062 24.0833 20.7583 24.0833 16.875C24.0833 12.9917 20.912 9.84375 17 9.84375C13.088 9.84375 9.91667 12.9917 9.91667 16.875C9.91667 20.7583 13.088 23.9062 17 23.9062Z" fill="white"/>
</g>
<defs>
<clipPath id="clip0_343_1284">
<rect width="34" height="45" fill="white"/>
</clipPath>
</defs>
</svg>
