<svg width="89" height="88" viewBox="0 0 89 88" fill="none" xmlns="http://www.w3.org/2000/svg">
<path d="M60.1198 20.9816H72.0365C73.09 20.9816 74.1003 21.4001 74.8452 22.145C75.5902 22.8899 76.0087 23.9003 76.0087 24.9538V68.6482C76.0087 70.7552 75.1717 72.7759 73.6818 74.2658C72.1919 75.7557 70.1712 76.5927 68.0642 76.5927M68.0642 76.5927C65.9572 76.5927 63.9365 75.7557 62.4467 74.2658C60.9568 72.7759 60.1198 70.7552 60.1198 68.6482V17.0093C60.1198 15.9558 59.7013 14.9455 58.9564 14.2005C58.2114 13.4556 57.2011 13.0371 56.1476 13.0371H16.4253C15.3718 13.0371 14.3615 13.4556 13.6166 14.2005C12.8716 14.9455 12.4531 15.9558 12.4531 17.0093V64.676C12.4531 67.8365 13.7086 70.8675 15.9434 73.1024C18.1782 75.3372 21.2093 76.5927 24.3698 76.5927H68.0642ZM28.342 28.926H44.2309M28.342 44.8149H44.2309M28.342 60.7038H44.2309" stroke="#694C97" stroke-width="5.41667" stroke-linecap="round" stroke-linejoin="round"/>
<path d="M28.3359 28.9258H44.2248M28.3359 44.8147H44.2248M28.3359 60.7036H44.2248" stroke="#0370BB" stroke-width="5.41667" stroke-linecap="round" stroke-linejoin="round"/>
</svg>
