<svg width="19" height="18" viewBox="0 0 19 18" fill="none" xmlns="http://www.w3.org/2000/svg">
<path fill-rule="evenodd" clip-rule="evenodd" d="M2.125 0C1.089 0 0.25 0.84 0.25 1.875V15C0.25 15.7956 0.566071 16.5587 1.12868 17.1213C1.69129 17.6839 2.45435 18 3.25 18H18.25C17.4544 18 16.6913 17.6839 16.1287 17.1213C15.5661 16.5587 15.25 15.7956 15.25 15V1.875C15.25 0.839 14.41 0 13.375 0H2.125ZM10 6.75C9.80109 6.75 9.61032 6.82902 9.46967 6.96967C9.32902 7.11032 9.25 7.30109 9.25 7.5C9.25 7.69891 9.32902 7.88968 9.46967 8.03033C9.61032 8.17098 9.80109 8.25 10 8.25H11.5C11.6989 8.25 11.8897 8.17098 12.0303 8.03033C12.171 7.88968 12.25 7.69891 12.25 7.5C12.25 7.30109 12.171 7.11032 12.0303 6.96967C11.8897 6.82902 11.6989 6.75 11.5 6.75H10ZM9.25 4.5C9.25 4.30109 9.32902 4.11032 9.46967 3.96967C9.61032 3.82902 9.80109 3.75 10 3.75H11.5C11.6989 3.75 11.8897 3.82902 12.0303 3.96967C12.171 4.11032 12.25 4.30109 12.25 4.5C12.25 4.69891 12.171 4.88968 12.0303 5.03033C11.8897 5.17098 11.6989 5.25 11.5 5.25H10C9.80109 5.25 9.61032 5.17098 9.46967 5.03033C9.32902 4.88968 9.25 4.69891 9.25 4.5ZM4 9.75C3.80109 9.75 3.61032 9.82902 3.46967 9.96967C3.32902 10.1103 3.25 10.3011 3.25 10.5C3.25 10.6989 3.32902 10.8897 3.46967 11.0303C3.61032 11.171 3.80109 11.25 4 11.25H11.5C11.6989 11.25 11.8897 11.171 12.0303 11.0303C12.171 10.8897 12.25 10.6989 12.25 10.5C12.25 10.3011 12.171 10.1103 12.0303 9.96967C11.8897 9.82902 11.6989 9.75 11.5 9.75H4ZM3.25 13.5C3.25 13.3011 3.32902 13.1103 3.46967 12.9697C3.61032 12.829 3.80109 12.75 4 12.75H11.5C11.6989 12.75 11.8897 12.829 12.0303 12.9697C12.171 13.1103 12.25 13.3011 12.25 13.5C12.25 13.6989 12.171 13.8897 12.0303 14.0303C11.8897 14.171 11.6989 14.25 11.5 14.25H4C3.80109 14.25 3.61032 14.171 3.46967 14.0303C3.32902 13.8897 3.25 13.6989 3.25 13.5ZM4 3.75C3.80109 3.75 3.61032 3.82902 3.46967 3.96967C3.32902 4.11032 3.25 4.30109 3.25 4.5V7.5C3.25 7.914 3.586 8.25 4 8.25H7C7.19891 8.25 7.38968 8.17098 7.53033 8.03033C7.67098 7.88968 7.75 7.69891 7.75 7.5V4.5C7.75 4.30109 7.67098 4.11032 7.53033 3.96967C7.38968 3.82902 7.19891 3.75 7 3.75H4Z" fill="white"/>
</svg>
