<svg width="46" height="46" viewBox="0 0 46 46" fill="none" xmlns="http://www.w3.org/2000/svg">
<path fill-rule="evenodd" clip-rule="evenodd" d="M33.8408 45.9934C30.5209 45.8714 21.1188 44.5736 11.2728 34.7298C1.4267 24.886 0.128603 15.4861 0.00644286 12.1669C-0.179724 7.10963 3.69521 2.19581 8.17337 0.277062C9.22415 -0.173181 10.4969 -0.0907847 11.503 0.642951C15.1867 3.32934 17.7318 7.39098 19.9167 10.5867C20.9038 12.0302 20.6679 14.0012 19.3271 15.1616L14.8316 18.4995C14.3861 18.8303 14.2379 19.4315 14.5052 19.9178C15.5223 21.7689 17.3343 24.5234 19.4078 26.5965C21.4837 28.6718 24.3691 30.6003 26.3478 31.7317C26.8609 32.0252 27.5063 31.8552 27.8307 31.3611L30.7552 26.9075C31.8766 25.4153 33.9709 25.0894 35.4932 26.1428C38.7362 28.3866 42.5189 30.8852 45.2889 34.4317C46.0757 35.4392 46.1927 36.7568 45.7234 37.8519C43.7954 42.3498 38.9163 46.1803 33.8408 45.9934Z" fill="white"/>
</svg>
