<svg width="77" height="77" viewBox="0 0 77 77" fill="none" xmlns="http://www.w3.org/2000/svg">
<path d="M59.116 44.4346H52.1169C52.0819 44.4327 52.0523 44.4145 52.017 44.4145C50.9479 44.4148 50.0812 45.2814 50.0809 46.3505V46.3668C50.0809 49.2176 47.77 51.5285 44.9192 51.5285C42.0685 51.5285 39.7576 49.2176 39.7576 46.3669V46.3497V46.3505C39.7572 45.2815 38.8906 44.4149 37.8215 44.4145C37.7861 44.4145 37.7566 44.4329 37.7216 44.4346H32.6687V41.0024C36.7575 40.0876 39.7676 36.4893 39.7676 32.1879C39.7676 27.8866 36.7576 24.2884 32.7289 23.3849L32.6688 23.3736V17.9647C32.6684 16.8955 31.8018 16.0288 30.7327 16.0286H2.33921C1.27017 16.0288 0.403532 16.8955 0.403129 17.9647V46.2982L0.390625 46.3605V74.7563C0.390948 75.8255 1.25759 76.6921 2.32671 76.6924L59.116 76.7028C60.1851 76.7024 61.0517 75.8358 61.0521 74.7667V46.3708C61.0517 45.3017 60.1851 44.435 59.116 44.4347L59.116 44.4346ZM4.27546 19.9006H28.7968V25.0888C28.797 26.1579 29.6636 27.0246 30.7328 27.0249C33.5841 27.0249 35.8957 29.3364 35.8957 32.1878C35.8957 35.0391 33.5841 37.3507 30.7328 37.3507C29.6636 37.351 28.797 38.2176 28.7968 39.2867V44.4243H25.3618C24.4562 40.3259 20.854 37.3055 16.5462 37.3055C12.2384 37.3055 8.63632 40.3258 7.74185 44.3644L7.73056 44.4243H4.27546V19.9006ZM4.26287 48.2965H9.31363C9.35703 48.2993 9.3943 48.3217 9.43834 48.3217C10.5121 48.3056 11.3772 47.4353 11.3848 46.361V46.3602C11.392 43.5178 13.6979 41.2163 16.5413 41.2163C19.3892 41.2163 21.6979 43.5251 21.6979 46.3729V46.3862V46.3854C21.6983 47.4546 22.5649 48.3212 23.634 48.3215C23.6782 48.3215 23.7153 48.2991 23.7588 48.2963H28.7867V51.7337C24.6976 52.6506 21.6876 56.2499 21.6876 60.5524C21.6876 64.2759 23.9421 67.4729 27.1605 68.8527L27.2194 68.8752C27.6612 69.0661 28.185 69.235 28.7273 69.3547L28.7867 69.3656V72.8199H4.26295L4.26287 48.2965ZM57.1799 72.8305H32.6586V67.7697C32.6612 67.7302 32.6813 67.6974 32.6813 67.6575C32.6668 66.5841 31.797 65.7188 30.7233 65.7113H30.7225C27.8789 65.7048 25.5761 63.398 25.5761 60.5532C25.5761 57.7046 27.8853 55.3954 30.7341 55.3954H30.7462H30.7454C31.8146 55.395 32.6813 54.5284 32.6815 53.4593C32.6815 53.4196 32.6613 53.3865 32.6589 53.3471V48.3067H36.1122C37.0335 52.3854 40.626 55.3855 44.9193 55.3855C49.2127 55.3855 52.8052 52.3854 53.7149 48.3671L53.7264 48.3068H57.18L57.1799 72.8305ZM74.6046 0.544922H46.2136C45.1445 0.545245 44.2778 1.41188 44.2775 2.481V9.45518C44.2747 9.49874 44.2523 9.53585 44.2523 9.57997C44.2525 10.6491 45.1191 11.5157 46.1883 11.5161C49.0396 11.5161 51.3512 13.8276 51.3512 16.6789C51.3512 19.5303 49.0396 21.8418 46.1883 21.8418C45.1191 21.8422 44.2525 22.7088 44.2523 23.7779C44.2523 23.822 44.2746 23.8592 44.2774 23.9027V30.8769C44.2777 31.946 45.1444 32.8126 46.2135 32.813H51.5718C52.4866 36.9018 56.0849 39.9119 60.3863 39.9119C64.6876 39.9119 68.2859 36.9019 69.1894 32.8732L69.2007 32.813H74.6044C75.6735 32.8128 76.5401 31.9462 76.5405 30.877V2.481C76.5401 1.41213 75.6736 0.545406 74.6046 0.544922ZM72.6685 28.9408H67.4855C66.4164 28.9411 65.5497 29.8078 65.5494 30.8769C65.5494 33.7282 63.2379 36.0398 60.3865 36.0398C57.5352 36.0398 55.2236 33.7282 55.2236 30.8769C55.2234 29.8078 54.3568 28.941 53.2875 28.9408H48.1497V25.4855C52.2256 24.5622 55.2232 20.9706 55.2232 16.6789C55.2232 12.3873 52.2255 8.79586 48.2099 7.88389L48.1494 7.87235V4.41709H72.6681L72.6685 28.9408Z" fill="#694C97"/>
</svg>
