<svg width="18" height="18" viewBox="0 0 18 18" fill="none" xmlns="http://www.w3.org/2000/svg">
<path d="M0.400322 6.22948C0.794037 5.02115 1.43977 3.91016 2.29482 2.96998C2.36562 2.89234 2.4578 2.83739 2.55976 2.81203C2.66172 2.78668 2.76891 2.79205 2.86782 2.82748L4.90782 3.55348C5.05273 3.60485 5.20704 3.62423 5.36016 3.6103C5.51327 3.59637 5.66155 3.54945 5.79481 3.47278C5.92807 3.3961 6.04315 3.29148 6.13214 3.1661C6.22112 3.04073 6.28191 2.89757 6.31032 2.74648L6.70032 0.622475C6.71934 0.519238 6.76854 0.423956 6.84169 0.348667C6.91485 0.273378 7.00867 0.221461 7.11132 0.199475C8.35746 -0.0648641 9.64519 -0.0648641 10.8913 0.199475C11.1013 0.244475 11.2633 0.410975 11.3023 0.622475L11.6923 2.74648C11.7203 2.89782 11.7808 3.04129 11.8696 3.16694C11.9585 3.29259 12.0736 3.39743 12.207 3.47418C12.3404 3.55094 12.4889 3.59779 12.6422 3.61148C12.7955 3.62517 12.9499 3.60538 13.0948 3.55348L15.1348 2.82748C15.2337 2.79205 15.3409 2.78668 15.4429 2.81203C15.5448 2.83739 15.637 2.89234 15.7078 2.96998C16.5622 3.91041 17.2074 5.02135 17.6008 6.22948C17.6333 6.32938 17.6352 6.43669 17.6063 6.5377C17.5775 6.6387 17.5192 6.7288 17.4388 6.79648L15.7858 8.19298C15.6681 8.29196 15.5735 8.41548 15.5086 8.55488C15.4437 8.69429 15.4101 8.8462 15.4101 8.99998C15.4101 9.15375 15.4437 9.30566 15.5086 9.44507C15.5735 9.58447 15.6681 9.70799 15.7858 9.80698L17.4388 11.2035C17.6038 11.343 17.6668 11.5665 17.6008 11.7705C17.2076 12.9787 16.5624 14.0897 15.7078 15.03C15.637 15.1076 15.5448 15.1626 15.4429 15.1879C15.3409 15.2133 15.2337 15.2079 15.1348 15.1725L13.0948 14.4465C12.9499 14.3951 12.7956 14.3757 12.6425 14.3897C12.4894 14.4036 12.3411 14.4505 12.2078 14.5272C12.0746 14.6039 11.9595 14.7085 11.8705 14.8338C11.7815 14.9592 11.7207 15.1024 11.6923 15.2535L11.3023 17.3775C11.2834 17.481 11.234 17.5765 11.1606 17.6519C11.0871 17.7272 10.9928 17.7789 10.8898 17.8005C9.64419 18.0648 8.35696 18.0648 7.11132 17.8005C7.0084 17.7788 6.91425 17.727 6.84081 17.6516C6.76737 17.5763 6.71795 17.4809 6.69882 17.3775L6.31032 15.2535C6.28238 15.1021 6.22188 14.9587 6.13301 14.833C6.04414 14.7074 5.92902 14.6025 5.79562 14.5258C5.66222 14.449 5.51374 14.4022 5.36044 14.3885C5.20715 14.3748 5.05271 14.3946 4.90782 14.4465L2.86782 15.1725C2.76891 15.2079 2.66172 15.2133 2.55976 15.1879C2.4578 15.1626 2.36562 15.1076 2.29482 15.03C1.44031 14.0897 0.795093 12.9787 0.401822 11.7705C0.369359 11.6706 0.367434 11.5633 0.396292 11.4623C0.42515 11.3612 0.48348 11.2711 0.563822 11.2035L2.21682 9.80698C2.33427 9.70785 2.42867 9.58428 2.49343 9.44489C2.55818 9.30551 2.59173 9.15367 2.59173 8.99998C2.59173 8.84628 2.55818 8.69444 2.49343 8.55506C2.42867 8.41567 2.33427 8.2921 2.21682 8.19298L0.563822 6.79648C0.48348 6.7288 0.42515 6.6387 0.396292 6.5377C0.367434 6.43669 0.367859 6.32938 0.400322 6.22948ZM6.37482 8.99998C6.37482 9.69617 6.65138 10.3638 7.14367 10.8561C7.63595 11.3484 8.30363 11.625 8.99982 11.625C9.69601 11.625 10.3637 11.3484 10.856 10.8561C11.3483 10.3638 11.6248 9.69617 11.6248 8.99998C11.6248 8.30378 11.3483 7.6361 10.856 7.14382C10.3637 6.65154 9.69601 6.37498 8.99982 6.37498C8.30363 6.37498 7.63595 6.65154 7.14367 7.14382C6.65138 7.6361 6.37482 8.30378 6.37482 8.99998Z" fill="white"/>
</svg>
