<svg width="89" height="88" viewBox="0 0 89 88" fill="none" xmlns="http://www.w3.org/2000/svg">
<path d="M26.6562 26.5437H26.6821M37.0186 26.5437H37.0445M47.3811 26.5437H47.407M29.2468 42.0873H18.8843C17.5102 42.0873 16.1923 41.5414 15.2207 40.5698C14.249 39.5981 13.7031 38.2802 13.7031 36.9061V16.1812C13.7031 14.8071 14.249 13.4892 15.2207 12.5175C16.1923 11.5459 17.5102 11 18.8843 11H55.1529C56.527 11 57.8449 11.5459 58.8166 12.5175C59.7882 13.4892 60.3341 14.8071 60.3341 16.1812V36.9061C60.3341 38.2802 59.7882 39.5981 58.8166 40.5698C57.8449 41.5414 56.527 42.0873 55.1529 42.0873H42.1998L29.2468 55.0404V42.0873Z" stroke="#694C97" stroke-width="4" stroke-linecap="round" stroke-linejoin="round"/>
<path d="M67.0679 59.0682H67.0514M60.4847 59.0682H60.4682M53.9015 59.0682H53.885M65.4221 68.943H72.0053C72.8783 68.943 73.7155 68.5962 74.3328 67.9789C74.9501 67.3616 75.2969 66.5243 75.2969 65.6514V52.485C75.2969 51.612 74.9501 50.7747 74.3328 50.1574C73.7155 49.5402 72.8783 49.1934 72.0053 49.1934H48.9641C48.0911 49.1934 47.2539 49.5402 46.6366 50.1574C46.0193 50.7747 45.6725 51.612 45.6725 52.485V65.6514C45.6725 66.5243 46.0193 67.3616 46.6366 67.9789C47.2539 68.5962 48.0911 68.943 48.9641 68.943H57.1931L65.4221 77.172V68.943Z" stroke="#F67659" stroke-width="3.5" stroke-linecap="round" stroke-linejoin="round"/>
</svg>
