<svg width="87" height="87" viewBox="0 0 87 87" fill="none" xmlns="http://www.w3.org/2000/svg">
<path d="M16.6719 16.6678C16.6719 10.7406 21.4769 5.93555 27.4042 5.93555C33.3315 5.93555 38.1365 10.7406 38.1365 16.6678C38.1365 20.1277 36.4993 23.2052 33.9573 25.1678C33.8809 25.2242 33.8049 25.2813 33.7294 25.339C31.9557 26.6351 29.7693 27.4001 27.4042 27.4001C21.4769 27.4001 16.6719 22.5951 16.6719 16.6678ZM27.4042 11.3017C24.4406 11.3017 22.038 13.7042 22.038 16.6678C22.038 19.6315 24.4406 22.034 27.4042 22.034C30.3678 22.034 32.7703 19.6315 32.7703 16.6678C32.7703 13.7042 30.3678 11.3017 27.4042 11.3017Z" fill="#694C97"/>
<path d="M53.0463 25.1678C50.5044 23.2052 48.8672 20.1277 48.8672 16.6678C48.8672 10.7406 53.6722 5.93555 59.5995 5.93555C65.5269 5.93555 70.3318 10.7406 70.3318 16.6678C70.3318 22.5951 65.5269 27.4001 59.5995 27.4001C57.2346 27.4001 55.0479 26.6352 53.2742 25.3391C53.1988 25.2813 53.1228 25.2242 53.0463 25.1678ZM59.5995 11.3017C56.6358 11.3017 54.2333 13.7042 54.2333 16.6678C54.2333 19.6315 56.6358 22.034 59.5995 22.034C62.5632 22.034 64.9656 19.6315 64.9656 16.6678C64.9656 13.7042 62.5632 11.3017 59.5995 11.3017Z" fill="#694C97"/>
<path d="M13.9866 32.7656H28.3182C27.7249 34.444 27.4021 36.2502 27.4021 38.1318H13.9866C12.505 38.1318 11.3036 39.3331 11.3036 40.8149C11.3036 45.1985 13.0451 48.4494 15.801 50.6615C17.0682 51.6786 18.5857 52.5022 20.3012 53.1009C19.0552 54.4288 18.0763 56.0102 17.4504 57.759C15.6261 57.0169 13.9383 56.0472 12.4421 54.8463C8.4004 51.6023 5.9375 46.8039 5.9375 40.8149C5.9375 36.3696 9.54119 32.7656 13.9866 32.7656Z" fill="#694C97"/>
<path d="M34.2014 32.7665C33.2882 34.3451 32.7656 36.1779 32.7656 38.1327C32.7656 42.6593 35.5679 46.5313 39.5324 48.1086C40.7592 48.5966 42.0972 48.865 43.4979 48.865C44.8987 48.865 46.2368 48.5966 47.4635 48.1086C51.4279 46.5313 54.2302 42.6593 54.2302 38.1327C54.2302 36.1779 53.7076 34.3451 52.7945 32.7665C50.9388 29.5587 47.4704 27.4004 43.4979 27.4004C39.5255 27.4004 36.0571 29.5587 34.2014 32.7665ZM42.2939 32.9021C42.681 32.8134 43.084 32.7665 43.4979 32.7665C43.9119 32.7665 44.3149 32.8134 44.7019 32.9021C47.0858 33.4486 48.8641 35.583 48.8641 38.1327C48.8641 38.5466 48.8172 38.9496 48.7285 39.3367C48.182 41.7206 46.0476 43.4988 43.4979 43.4988C40.9483 43.4988 38.8139 41.7206 38.2674 39.3367C38.1787 38.9497 38.1318 38.5466 38.1318 38.1327C38.1318 35.583 39.91 33.4486 42.2939 32.9021Z" fill="#0370BB"/>
<path d="M71.2046 50.6615C69.9376 51.6786 68.4201 52.5022 66.7045 53.1009C67.9506 54.4288 68.9293 56.0102 69.555 57.759C71.3795 57.0169 73.0672 56.0472 74.5638 54.8463C78.605 51.6023 81.0681 46.8039 81.0681 40.8149C81.0681 36.3694 77.4642 32.7656 73.0189 32.7656H58.6875C59.2805 34.444 59.6035 36.2502 59.6035 38.1318H73.0189C74.5005 38.1318 75.702 39.333 75.702 40.8149C75.702 45.1985 73.9606 48.4494 71.2046 50.6615Z" fill="#694C97"/>
<path d="M56.919 54.2305C60.2777 54.2305 63.1556 56.2873 64.3624 59.2103C64.7525 60.1563 64.9683 61.193 64.9683 62.2797C64.9683 68.2689 62.5052 73.0673 58.464 76.3111C54.486 79.504 49.1546 81.0612 43.5037 81.0612C37.8527 81.0612 32.5214 79.504 28.5436 76.3111C24.502 73.0673 22.0391 68.2689 22.0391 62.2797C22.0391 61.193 22.2545 60.1563 22.645 59.2103C23.8516 56.2873 26.7297 54.2305 30.0882 54.2305H56.919ZM56.919 59.5966H30.0882C28.6065 59.5966 27.4052 60.7981 27.4052 62.2797C27.4052 66.6633 29.1467 69.9141 31.9026 72.126C34.7224 74.3895 38.7819 75.6951 43.5037 75.6951C48.2254 75.6951 52.2849 74.3895 55.1047 72.126C57.8608 69.9141 59.6021 66.6633 59.6021 62.2797C59.6021 60.7981 58.4006 59.5966 56.919 59.5966Z" fill="#0370BB"/>
</svg>
