<svg width="44" height="44" viewBox="0 0 44 44" fill="none" xmlns="http://www.w3.org/2000/svg">
<g id="ic:baseline-tiktok">
<path id="Vector" d="M30.4239 10.67C29.1706 9.23931 28.48 7.40196 28.4805 5.5H22.8155V28.2333C22.7718 29.4635 22.2525 30.6288 21.3668 31.4837C20.4811 32.3386 19.2982 32.8165 18.0672 32.8167C15.4639 32.8167 13.3005 30.69 13.3005 28.05C13.3005 24.8967 16.3439 22.5317 19.4789 23.5033V17.71C13.1539 16.8667 7.61719 21.78 7.61719 28.05C7.61719 34.155 12.6772 38.5 18.0489 38.5C23.8055 38.5 28.4805 33.825 28.4805 28.05V16.5183C30.7777 18.1681 33.5357 19.0532 36.3639 19.0483V13.3833C36.3639 13.3833 32.9172 13.5483 30.4239 10.67Z" fill="white"/>
</g>
</svg>
