<svg width="13" height="18" viewBox="0 0 13 18" fill="none" xmlns="http://www.w3.org/2000/svg">
<path id="Vector" d="M1 1.72876C0.734784 1.72876 0.48043 1.84662 0.292893 2.05641C0.105357 2.2662 0 2.55074 0 2.84742V3.96608C0 4.26277 0.105357 4.5473 0.292893 4.75709C0.48043 4.96688 0.734784 5.08474 1 5.08474H1.5V15.1527C1.5 15.746 1.71071 16.3151 2.08579 16.7347C2.46086 17.1542 2.96957 17.39 3.5 17.39H9.5C10.0304 17.39 10.5391 17.1542 10.9142 16.7347C11.2893 16.3151 11.5 15.746 11.5 15.1527V5.08474H12C12.2652 5.08474 12.5196 4.96688 12.7071 4.75709C12.8946 4.5473 13 4.26277 13 3.96608V2.84742C13 2.55074 12.8946 2.2662 12.7071 2.05641C12.5196 1.84662 12.2652 1.72876 12 1.72876H8.5C8.5 1.43208 8.39464 1.14754 8.20711 0.937755C8.01957 0.727966 7.76522 0.610107 7.5 0.610107H5.5C5.23478 0.610107 4.98043 0.727966 4.79289 0.937755C4.60536 1.14754 4.5 1.43208 4.5 1.72876H1ZM4 6.20339C4.13261 6.20339 4.25979 6.26232 4.35355 6.36722C4.44732 6.47211 4.5 6.61438 4.5 6.76272V14.5933C4.5 14.7417 4.44732 14.8839 4.35355 14.9888C4.25979 15.0937 4.13261 15.1527 4 15.1527C3.86739 15.1527 3.74021 15.0937 3.64645 14.9888C3.55268 14.8839 3.5 14.7417 3.5 14.5933V6.76272C3.5 6.61438 3.55268 6.47211 3.64645 6.36722C3.74021 6.26232 3.86739 6.20339 4 6.20339ZM6.5 6.20339C6.63261 6.20339 6.75979 6.26232 6.85355 6.36722C6.94732 6.47211 7 6.61438 7 6.76272V14.5933C7 14.7417 6.94732 14.8839 6.85355 14.9888C6.75979 15.0937 6.63261 15.1527 6.5 15.1527C6.36739 15.1527 6.24021 15.0937 6.14645 14.9888C6.05268 14.8839 6 14.7417 6 14.5933V6.76272C6 6.61438 6.05268 6.47211 6.14645 6.36722C6.24021 6.26232 6.36739 6.20339 6.5 6.20339ZM9.5 6.76272V14.5933C9.5 14.7417 9.44732 14.8839 9.35355 14.9888C9.25979 15.0937 9.13261 15.1527 9 15.1527C8.86739 15.1527 8.74021 15.0937 8.64645 14.9888C8.55268 14.8839 8.5 14.7417 8.5 14.5933V6.76272C8.5 6.61438 8.55268 6.47211 8.64645 6.36722C8.74021 6.26232 8.86739 6.20339 9 6.20339C9.13261 6.20339 9.25979 6.26232 9.35355 6.36722C9.44732 6.47211 9.5 6.61438 9.5 6.76272Z" fill="black"/>
</svg>
