<svg width="30" height="32" viewBox="0 0 30 32" fill="none" xmlns="http://www.w3.org/2000/svg">
<g id="trash">
<path id="Vector" d="M7.3111 6.46667C6.96337 6.46667 6.62989 6.62119 6.38401 6.89624C6.13813 7.1713 6 7.54435 6 7.93333V9.4C6 9.78898 6.13813 10.162 6.38401 10.4371C6.62989 10.7121 6.96337 10.8667 7.3111 10.8667H7.96664V24.0667C7.96664 24.8446 8.24291 25.5907 8.73467 26.1408C9.22642 26.691 9.89339 27 10.5888 27H18.4554C19.1509 27 19.8178 26.691 20.3096 26.1408C20.8013 25.5907 21.0776 24.8446 21.0776 24.0667V10.8667H21.7331C22.0809 10.8667 22.4144 10.7121 22.6602 10.4371C22.9061 10.162 23.0442 9.78898 23.0442 9.4V7.93333C23.0442 7.54435 22.9061 7.1713 22.6602 6.89624C22.4144 6.62119 22.0809 6.46667 21.7331 6.46667H17.1443C17.1443 6.07768 17.0062 5.70463 16.7603 5.42958C16.5144 5.15452 16.1809 5 15.8332 5H13.211C12.8633 5 12.5298 5.15452 12.2839 5.42958C12.0381 5.70463 11.8999 6.07768 11.8999 6.46667H7.3111ZM11.2444 12.3333C11.4182 12.3333 11.585 12.4106 11.7079 12.5481C11.8309 12.6856 11.8999 12.8722 11.8999 13.0667V23.3333C11.8999 23.5278 11.8309 23.7144 11.7079 23.8519C11.585 23.9894 11.4182 24.0667 11.2444 24.0667C11.0705 24.0667 10.9038 23.9894 10.7808 23.8519C10.6579 23.7144 10.5888 23.5278 10.5888 23.3333V13.0667C10.5888 12.8722 10.6579 12.6856 10.7808 12.5481C10.9038 12.4106 11.0705 12.3333 11.2444 12.3333ZM14.5221 12.3333C14.696 12.3333 14.8627 12.4106 14.9857 12.5481C15.1086 12.6856 15.1777 12.8722 15.1777 13.0667V23.3333C15.1777 23.5278 15.1086 23.7144 14.9857 23.8519C14.8627 23.9894 14.696 24.0667 14.5221 24.0667C14.3483 24.0667 14.1815 23.9894 14.0586 23.8519C13.9356 23.7144 13.8666 23.5278 13.8666 23.3333V13.0667C13.8666 12.8722 13.9356 12.6856 14.0586 12.5481C14.1815 12.4106 14.3483 12.3333 14.5221 12.3333ZM18.4554 13.0667V23.3333C18.4554 23.5278 18.3863 23.7144 18.2634 23.8519C18.1405 23.9894 17.9737 24.0667 17.7999 24.0667C17.626 24.0667 17.4593 23.9894 17.3363 23.8519C17.2134 23.7144 17.1443 23.5278 17.1443 23.3333V13.0667C17.1443 12.8722 17.2134 12.6856 17.3363 12.5481C17.4593 12.4106 17.626 12.3333 17.7999 12.3333C17.9737 12.3333 18.1405 12.4106 18.2634 12.5481C18.3863 12.6856 18.4554 12.8722 18.4554 13.0667Z" fill="#694C97"/>
</g>
</svg>
