<svg width="59" height="59" viewBox="0 0 59 59" fill="none" xmlns="http://www.w3.org/2000/svg">
<g id="Frame">
<path id="Vector" d="M24.7136 19.6372L38.5565 39.3628H34.8764L21.0581 19.6372H24.7136ZM51.625 14.75V44.25C51.625 48.3235 48.3235 51.625 44.25 51.625H14.75C10.6765 51.625 7.375 48.3235 7.375 44.25V14.75C7.375 10.6765 10.6765 7.375 14.75 7.375H44.25C48.3235 7.375 51.625 10.6765 51.625 14.75ZM43.1143 41.7917L32.8237 27.0662L41.2361 17.2083H38.0132L31.3659 24.9767L25.9403 17.2083H16.4757L26.164 31.0561L16.9773 41.7917H20.2542L27.6317 33.1482L33.6742 41.7917H43.1143Z" fill="#694C97"/>
</g>
</svg>
