<svg width="25" height="40" viewBox="0 0 25 40" fill="none" xmlns="http://www.w3.org/2000/svg">
<path d="M22.398 22.9491L21.9455 24.2631L21.2545 23.0573C20.7536 22.1831 19.807 20.8769 18.6213 19.835C17.4215 18.7806 16.0839 18.0886 14.7764 18.2131C13.0334 18.3791 11.8798 19.3008 11.3695 20.5506C10.8515 21.8189 10.9579 23.5254 11.9697 25.2888C13.036 27.1472 14.6611 29.4471 16.3258 31.4579C18.0087 33.4907 19.6641 35.1443 20.7854 35.7902L21.6601 36.2941L20.8237 36.8592C20.4182 37.1331 19.8111 37.5396 18.7258 37.8684C17.6536 38.1933 16.1402 38.4353 13.9087 38.4353C8.1486 38.4353 3.70486 34.4113 1.96637 31.2149C1.37781 30.1328 0.944168 28.5199 0.759869 26.7968C0.5748 25.0666 0.633934 23.1592 1.08194 21.4769L1.08648 21.4599L1.09196 21.4431L6.0378 6.3266L6.05471 6.27489L6.08024 6.22684C6.29797 5.81701 6.72728 5.26251 7.34389 4.88935C7.98484 4.50145 8.83428 4.31094 9.7924 4.69418C10.728 5.06844 11.2205 5.73316 11.422 6.42172C11.4548 6.53389 11.4797 6.64585 11.4978 6.75649L12.8179 3.07792L12.8233 3.063L12.8294 3.04837C13.0193 2.59243 13.422 1.96406 14.0471 1.53443C14.7038 1.08312 15.5909 0.867032 16.6258 1.27473C17.6591 1.68179 18.1588 2.43862 18.3257 3.2142C18.4838 3.94931 18.3416 4.67552 18.1641 5.13313L17.4976 6.88424C17.5012 6.88317 17.5049 6.88213 17.5086 6.8811C17.6964 6.8288 17.8651 6.85497 17.9804 6.8853C18.172 6.93572 18.3985 7.05267 18.6142 7.16407C18.6222 7.16821 18.6302 7.17233 18.6382 7.17645C18.6608 7.18811 18.684 7.2001 18.7079 7.21244C18.9515 7.33835 19.2641 7.49991 19.684 7.69884C20.9071 8.27819 21.3434 9.43291 21.4343 10.4352C21.5221 11.4039 21.307 12.3812 21.0373 12.8968C21.0727 12.9052 21.1077 12.9164 21.1418 12.9305C21.2698 12.9834 21.3534 13.0631 21.3964 13.1093C21.4417 13.1579 21.4755 13.2061 21.4962 13.237C21.5209 13.2739 21.5549 13.3299 21.5805 13.3722C21.5902 13.3883 21.5988 13.4023 21.6051 13.4126C21.7214 13.6007 21.951 13.9435 22.5838 14.3021C23.4246 14.7785 23.958 15.3722 24.2062 16.0229C24.45 16.6624 24.3948 17.2981 24.165 17.8179L22.398 22.9491ZM8.52745 16.2525C8.52748 16.2525 8.52739 16.2518 8.5271 16.2505L8.52745 16.2525ZM14.4842 14.8814C14.4842 14.8814 14.4841 14.8806 14.4839 14.8791L14.4842 14.8814ZM13.9627 14.6593C13.9628 14.6592 13.9629 14.6592 13.9629 14.6591C13.9621 14.6597 13.9617 14.6601 13.9617 14.6601C13.9618 14.6601 13.9621 14.6598 13.9627 14.6593Z" fill="#A0C7EF" stroke="#0370BB" stroke-width="1.26126"/>
</svg>
