<svg width="31" height="39" viewBox="0 0 31 39" fill="none" xmlns="http://www.w3.org/2000/svg">
<path d="M7.63772 23.3215L8.15129 24.4255L8.75667 23.369C9.26407 22.4836 10.1917 21.1367 11.3554 20.0571C12.5353 18.9627 13.8453 18.2451 15.1406 18.3685C16.8836 18.5345 18.0372 19.4562 18.5476 20.7059C19.0655 21.9742 18.9592 23.6807 17.9474 25.4441C16.8834 27.2985 15.3049 29.4759 13.6765 31.4013C12.0394 33.3372 10.396 34.9659 9.21055 35.7616L8.43305 36.2835L9.20895 36.8077C9.23281 36.8239 9.25729 36.8405 9.28245 36.8576C9.66796 37.1197 10.214 37.4909 11.1838 37.7901C12.2006 38.1038 13.6566 38.332 15.8841 38.332C18.7545 38.332 21.5261 37.3783 23.7566 36.0219C25.9755 34.6725 27.7299 32.8802 28.4982 31.1333C29.8144 28.1403 30.0398 24.5138 29.2281 21.8455L29.2244 21.8335L29.2203 21.8216L23.8755 6.47067L23.8595 6.42493L23.8368 6.38216C23.6191 5.97233 23.1898 5.41783 22.5732 5.04467C21.9322 4.65678 21.0828 4.46626 20.1246 4.84951C19.189 5.22376 18.6966 5.88849 18.4951 6.57705C18.4623 6.68921 18.4373 6.80118 18.4192 6.91182L17.0991 3.23324L17.0938 3.21832L17.0877 3.20369C16.8977 2.74775 16.495 2.11938 15.8699 1.68975C15.2133 1.23845 14.3262 1.02236 13.2912 1.43006C12.2579 1.83711 11.7583 2.59395 11.5914 3.36952C11.5533 3.54669 11.5326 3.72334 11.5257 3.89583L11.1241 2.8997L11.1146 2.87617L11.1033 2.85347C10.8689 2.38486 10.3839 1.7697 9.65327 1.39861C8.8905 1.01117 7.90847 0.916534 6.78885 1.44688C5.65709 1.98298 5.13824 2.82321 5.01169 3.68217C4.92536 4.2682 5.0252 4.83067 5.1829 5.27541C5.03162 5.18318 4.86493 5.10144 4.68358 5.03679C4.00632 4.79536 3.17367 4.81112 2.27313 5.32142C1.31432 5.86474 0.9356 6.71778 0.860751 7.51899C0.788601 8.29131 0.992207 9.03056 1.20305 9.48946L1.20304 9.48946L1.2043 9.49216L7.63772 23.3215ZM21.3896 16.4078C21.3896 16.4077 21.3897 16.407 21.39 16.4058L21.3896 16.4078ZM15.4329 15.0367C15.4329 15.0367 15.4329 15.0359 15.4331 15.0344L15.4329 15.0367ZM15.9543 14.8146C15.9542 14.8145 15.9542 14.8145 15.9541 14.8144C15.955 14.8151 15.9554 14.8154 15.9553 14.8154C15.9553 14.8154 15.955 14.8151 15.9543 14.8146Z" fill="#DFC5FF" stroke="#743EB6" stroke-width="1.26126"/>
</svg>
