<svg width="54" height="54" viewBox="0 0 54 54" fill="none" xmlns="http://www.w3.org/2000/svg">
<g id="mingcute:youtube-fill" clip-path="url(#clip0_3199_12888)">
<g id="Group">
<path id="Vector" fill-rule="evenodd" clip-rule="evenodd" d="M27.0078 9.00098C28.9316 9.00098 30.9048 9.05048 32.8173 9.13148L35.0763 9.23948L37.2386 9.36773L39.2636 9.50498L41.1131 9.64898C43.1202 9.8026 45.0088 10.6591 46.4467 12.0678C47.8847 13.4765 48.7798 15.3472 48.9746 17.3507L49.0646 18.307L49.2333 20.3545C49.3908 22.4762 49.5078 24.7892 49.5078 27.001C49.5078 29.2127 49.3908 31.5257 49.2333 33.6475L49.0646 35.695C49.0353 36.0235 49.0061 36.3407 48.9746 36.6512C48.7797 38.6551 47.8843 40.5261 46.4459 41.9348C45.0075 43.3436 43.1183 44.1999 41.1108 44.353L39.2658 44.4947L37.2408 44.6342L35.0763 44.7625L32.8173 44.8705C30.8819 44.9546 28.945 44.9981 27.0078 45.001C25.0706 44.9981 23.1337 44.9546 21.1983 44.8705L18.9393 44.7625L16.7771 44.6342L14.7521 44.4947L12.9026 44.353C10.8955 44.1994 9.0068 43.3428 7.56888 41.9341C6.13095 40.5254 5.23585 38.6548 5.04106 36.6512L4.95106 35.695L4.78231 33.6475C4.61027 31.436 4.51871 29.2191 4.50781 27.001C4.50781 24.7892 4.62481 22.4762 4.78231 20.3545L4.95106 18.307C4.98031 17.9785 5.00956 17.6612 5.04106 17.3507C5.23578 15.3475 6.13055 13.4772 7.56802 12.0685C9.00549 10.6598 10.8936 9.80311 12.9003 9.64898L14.7476 9.50498L16.7726 9.36773L18.9371 9.23948L21.1961 9.13148C23.1322 9.0474 25.0699 9.00389 27.0078 9.00098ZM22.5078 21.5447V32.4572C22.5078 33.4967 23.6328 34.1447 24.5328 33.6272L33.9828 28.171C34.1884 28.0526 34.3592 27.8821 34.478 27.6767C34.5968 27.4713 34.6593 27.2382 34.6593 27.001C34.6593 26.7637 34.5968 26.5306 34.478 26.3252C34.3592 26.1198 34.1884 25.9493 33.9828 25.831L24.5328 20.377C24.3275 20.2585 24.0946 20.1961 23.8576 20.1961C23.6205 20.1962 23.3877 20.2586 23.1824 20.3772C22.9772 20.4958 22.8068 20.6663 22.6884 20.8717C22.5699 21.077 22.5077 21.3099 22.5078 21.547V21.5447Z" fill="white"/>
</g>
</g>
<defs>
<clipPath id="clip0_3199_12888">
<rect width="54" height="54" fill="white"/>
</clipPath>
</defs>
</svg>
